<?xml version="1.0" encoding="utf-8"?>
<!-- Generator: Adobe Illustrator 22.1.0, SVG Export Plug-In . SVG Version: 6.00 Build 0)  -->
<svg version="1.1" id="Слой_1" xmlns="http://www.w3.org/2000/svg" xmlns:xlink="http://www.w3.org/1999/xlink" x="0px" y="0px"
	 viewBox="0 0 514.1 514.1" style="enable-background:new 0 0 514.1 514.1;" xml:space="preserve">
<path d="M61.2,0C27.5,0,0,27.5,0,61.2v391.7c0,33.7,27.5,61.2,61.2,61.2h391.7c33.7,0,61.2-27.5,61.2-61.2V61.2
	c0-33.7-27.5-61.2-61.2-61.2H61.2z M61.2,24.5h391.7c20.4,0,36.7,16.3,36.7,36.7v391.7c0,20.4-16.3,36.7-36.7,36.7H61.2
	c-20.4,0-36.7-16.3-36.7-36.7V61.2C24.5,40.8,40.8,24.5,61.2,24.5z M403.8,183.4c-3.2,0.1-6.3,1.4-8.5,3.8L257,325.4L118.8,187.2
	c-2.3-2.4-5.5-3.7-8.8-3.7c-6.8,0-12.2,5.5-12.2,12.2c0,3.3,1.3,6.5,3.7,8.8L257,360l155.5-155.5c4.9-4.7,5-12.4,0.3-17.3
	C410.5,184.7,407.2,183.4,403.8,183.4L403.8,183.4z"/>
</svg>
