<?xml version="1.0" encoding="utf-8"?>
<!-- Generator: Adobe Illustrator 22.1.0, SVG Export Plug-In . SVG Version: 6.00 Build 0)  -->
<svg version="1.1" id="Слой_1" xmlns="http://www.w3.org/2000/svg" xmlns:xlink="http://www.w3.org/1999/xlink" x="0px" y="0px"
	 viewBox="0 0 387.8 470.8" style="enable-background:new 0 0 387.8 470.8;" xml:space="preserve">
<path d="M382.9,275.4C317,374.2,213.4,463.7,208.8,466.1c-2.4,2.3-9.5,4.7-14.2,4.7c-4.7,0-11.8-2.4-16.5-4.7
	c-4.7-2.4-108.3-94.2-174.2-190.7c-4.7-7.1-4.7-16.5-2.3-25.8c7.1-9.5,14.1-14.2,23.5-14.2h87.1c0,0,11.8-204.8,18.8-214.2
	C140.5,9.4,168.7,0,194.6,0s51.8,9.4,61.2,21.1c7,9.5,21.1,214.2,21.1,214.2h87.1c9.5,0,16.4,4.7,21.2,14.2
	C390,256.5,387.6,266,382.9,275.4L382.9,275.4z"/>
</svg>
