<?xml version="1.0" encoding="utf-8"?>
<!-- Generator: Adobe Illustrator 22.1.0, SVG Export Plug-In . SVG Version: 6.00 Build 0)  -->
<svg version="1.1" id="icon-three-dots-symbol" xmlns="http://www.w3.org/2000/svg" xmlns:xlink="http://www.w3.org/1999/xlink"
	 x="0px" y="0px" viewBox="0 0 612 141.2" style="enable-background:new 0 0 612 141.2;" xml:space="preserve">
<path d="M70.6,0C31.6,0,0,31.6,0,70.6s31.6,70.6,70.6,70.6s70.6-31.6,70.6-70.6S109.6,0,70.6,0z M306,0c-39,0-70.6,31.6-70.6,70.6
	s31.6,70.6,70.6,70.6s70.6-31.6,70.6-70.6S345,0,306,0z M541.4,0c-39,0-70.6,31.6-70.6,70.6s31.6,70.6,70.6,70.6S612,109.6,612,70.6
	S580.4,0,541.4,0z"/>
</svg>
