<?xml version="1.0" encoding="utf-8"?>
<!-- Generator: Adobe Illustrator 22.1.0, SVG Export Plug-In . SVG Version: 6.00 Build 0)  -->
<svg version="1.1" id="Слой_1" xmlns="http://www.w3.org/2000/svg" xmlns:xlink="http://www.w3.org/1999/xlink" x="0px" y="0px"
	 viewBox="0 0 48 48" style="enable-background:new 0 0 48 48;" xml:space="preserve">
<path d="M22.1,0C15.1,0,10,2.4,6.7,6.2s-4.8,8.8-4.8,14c0,4.2,1.3,8.2,3.5,11.4c2,2.9,3.2,6.4,3.2,9.9V48h1.9v-6.5
	c0-3.9-1.3-7.7-3.5-10.9L7,30.4C5,27.5,3.8,24,3.8,20.2c0-4.9,1.4-9.4,4.3-12.8s7.4-5.5,13.9-5.5c6.5,0,10.8,1.9,13.6,4.8
	s4.2,6.9,4.7,11.3l0,0.2l0.1,0.1l4.5,7.8h0c0.2,0.4,0.1,0.8-0.3,1.1v0l-4.3,2.2v5.8c0,3.6-3,6.4-6.5,6.1h0l-3-0.2l-1-0.1V48h1.9v-5
	l1.9,0.2c0,0,0,0,0,0c4.7,0.4,8.6-3.3,8.6-8v-4.6l3.3-1.6h0l0,0c1.3-0.7,1.7-2.4,1-3.7v0l-4.4-7.7c-0.6-4.5-2-8.8-5.2-12.1
	C33.8,2.1,29,0,22.1,0z M18.9,5.8l-0.1,0.8l-0.5,2.9c-0.4,0.1-0.9,0.3-1.3,0.5l-2.4-1.7l-0.7-0.5l-0.6,0.6l-2,2l-0.6,0.6l0.5,0.7
	l1.7,2.4c-0.2,0.4-0.4,0.8-0.5,1.3l-3,0.6L8.6,16v4.5l0.8,0.1l2.9,0.5c0.2,0.5,0.3,0.9,0.5,1.3l-1.7,2.4l-0.5,0.7l0.6,0.6l2,2
	l0.6,0.6l0.7-0.5l2.4-1.7c0.4,0.2,0.8,0.4,1.3,0.5l0.5,2.9l0.1,0.8h4.5l0.1-0.8l0.5-2.9c0.4-0.2,0.9-0.3,1.3-0.5l2.5,1.7l0.7,0.5
	l0.6-0.6l2-2l0.6-0.6L31,24.7l-1.7-2.4c0.2-0.4,0.4-0.8,0.5-1.3l2.9-0.4l0.8-0.1V16l-0.8-0.2l-2.9-0.5c-0.1-0.4-0.3-0.9-0.5-1.3
	l1.7-2.5l0.5-0.7l-0.6-0.6l-2-2l-0.6-0.6l-0.7,0.5L25.3,10c-0.4-0.2-0.8-0.4-1.3-0.5l-0.5-2.9l-0.1-0.8H18.9z M20.5,7.7h1.3l0.4,2.5
	l0.1,0.7l0.6,0.1c0.7,0.2,1.4,0.5,2,0.9l0.5,0.3l0.5-0.4l2.1-1.5l0.8,0.9l-1.5,2.2l-0.4,0.5l0.4,0.5c0.4,0.7,0.7,1.3,0.8,2l0.1,0.6
	l0.6,0.1l2.6,0.4v1.2l-3.3,0.4l-0.1,0.7c-0.2,0.7-0.5,1.4-0.9,2l-0.3,0.5l0.4,0.5l1.5,2.1L28.1,26l-2.2-1.6l-0.5-0.3l-0.5,0.3
	c-0.8,0.4-1.5,0.7-2.1,0.9l-0.6,0.1L22.1,26l-0.5,2.7h-1.2l-0.5-2.6l-0.1-0.6l-0.6-0.1c-0.7-0.2-1.4-0.5-2-0.9l-0.5-0.3l-0.5,0.4
	L14,26.1l-0.9-0.8l1.5-2.1l0.4-0.5l-0.3-0.5c-0.4-0.6-0.7-1.3-0.9-2l-0.1-0.6l-0.7-0.1l-2.6-0.5v-1.3l2.7-0.5l0.6-0.1l0.1-0.6
	c0.2-0.7,0.5-1.4,0.9-2l0.3-0.5l-0.4-0.5l-1.5-2.1l0.8-0.9l2.1,1.5l0.6,0.4l0.6-0.4c0.5-0.4,1.2-0.6,2-0.8l0.6-0.1l0.1-0.7L20.5,7.7
	z M21.1,13.4c-2.6,0-4.8,2.2-4.8,4.8s2.2,4.8,4.8,4.8s4.8-2.2,4.8-4.8S23.8,13.4,21.1,13.4z M21.1,15.4c1.6,0,2.9,1.3,2.9,2.9
	s-1.3,2.9-2.9,2.9s-2.9-1.3-2.9-2.9S19.5,15.4,21.1,15.4z"/>
</svg>
