<?xml version="1.0" encoding="utf-8"?>
<!-- Generator: Adobe Illustrator 22.1.0, SVG Export Plug-In . SVG Version: 6.00 Build 0)  -->
<svg version="1.1" id="Слой_1" xmlns="http://www.w3.org/2000/svg" xmlns:xlink="http://www.w3.org/1999/xlink" x="0px" y="0px"
	 viewBox="0 0 40.3 37.6" style="enable-background:new 0 0 40.3 37.6;" xml:space="preserve">
<path d="M33.6,0c-1.7,0-3.4,0.6-4.7,1.9L9.8,21c-0.1,0.1-0.1,0.1-0.2,0.2c0,0,0,0-0.1,0.1c0,0-0.1,0.1-0.1,0.1c0,0,0,0,0,0
	c-1.7,1.9-1.6,4.8,0.2,6.6c1.9,1.9,4.9,1.9,6.8,0l14.5-14.5c0.3-0.3,0.4-0.7,0.2-1.1c-0.1-0.4-0.5-0.6-0.9-0.6
	c-0.3,0-0.5,0.1-0.7,0.3L15.1,26.6c-1.1,1.1-3,1.1-4.1,0c-1.1-1.1-1.1-2.8-0.1-3.9c0,0,0.1-0.1,0.1-0.1c0,0,0,0,0.1-0.1l0.1-0.1
	c0,0,0,0,0,0L30.2,3.3c1.9-1.9,4.9-1.9,6.8,0c1.9,1.9,1.9,4.9,0,6.8L13.3,33.7c-2.6,2.6-6.9,2.6-9.5,0s-2.6-6.9,0-9.5L22.8,5.3
	c0.3-0.2,0.4-0.6,0.3-1C23,4,22.7,3.7,22.4,3.7c-0.4-0.1-0.7,0-1,0.3L2.5,22.9c-3.4,3.4-3.4,8.9,0,12.2s8.8,3.4,12.2,0l23.7-23.6
	c2.6-2.6,2.6-6.9,0-9.5C37.1,0.6,35.3,0,33.6,0z"/>
</svg>
