<?xml version="1.0" encoding="utf-8"?>
<!-- Generator: Adobe Illustrator 22.1.0, SVG Export Plug-In . SVG Version: 6.00 Build 0)  -->
<svg version="1.1" id="Слой_1" xmlns="http://www.w3.org/2000/svg" xmlns:xlink="http://www.w3.org/1999/xlink" x="0px" y="0px"
	 viewBox="0 0 87.9 68.4" style="enable-background:new 0 0 87.9 68.4;" xml:space="preserve">
<g id="surface1">
	<path d="M43.9,0c-3.6,0-6.5,2.5-7.4,5.8H1.7C1,5.8,0.4,6.1,0,6.7C-0.3,7.3-0.3,8,0,8.6c0.4,0.6,1,1,1.7,1h34.8
		c0.9,3.3,3.8,5.8,7.4,5.8s6.5-2.5,7.4-5.8h34.8c0.7,0,1.3-0.4,1.7-1c0.3-0.6,0.3-1.3,0-1.9c-0.4-0.6-1-1-1.7-1H51.3
		C50.5,2.5,47.5,0,43.9,0z M43.9,3.8c2.1,0,3.7,1.6,3.8,3.7c0,0.1,0,0.2,0,0.4c-0.1,2.1-1.7,3.7-3.8,3.7s-3.7-1.6-3.8-3.7
		c0-0.1,0-0.2,0-0.4C40.2,5.4,41.8,3.8,43.9,3.8z M70.8,26.9c-3.6,0-6.5,2.5-7.4,5.8H1.7c-0.7,0-1.3,0.4-1.7,1
		c-0.3,0.6-0.3,1.3,0,1.9c0.4,0.6,1,1,1.7,1h61.7c0.9,3.3,3.8,5.8,7.4,5.8s6.5-2.5,7.4-5.8h8c0.7,0,1.3-0.4,1.7-1
		c0.3-0.6,0.3-1.3,0-1.9c-0.4-0.6-1-1-1.7-1h-8C77.3,29.3,74.4,26.9,70.8,26.9z M70.8,30.7c2.1,0,3.7,1.6,3.8,3.7c0,0.1,0,0.2,0,0.4
		c-0.1,2.1-1.7,3.7-3.8,3.7s-3.7-1.6-3.8-3.7c0-0.1,0-0.2,0-0.4C67.1,32.3,68.7,30.7,70.8,30.7z M22.8,53.8c-3.6,0-6.5,2.5-7.4,5.8
		H1.7c-0.7,0-1.3,0.4-1.7,1c-0.3,0.6-0.3,1.3,0,1.9c0.4,0.6,1,1,1.7,1h13.7c0.9,3.3,3.8,5.8,7.4,5.8c3.6,0,6.5-2.5,7.4-5.8h56
		c0.7,0,1.3-0.4,1.7-1c0.3-0.6,0.3-1.3,0-1.9c-0.4-0.6-1-1-1.7-1h-56C29.3,56.2,26.4,53.8,22.8,53.8z M22.8,57.6
		c2.1,0,3.7,1.6,3.8,3.7c0,0.1,0,0.2,0,0.4c-0.1,2.1-1.7,3.7-3.8,3.7c-2.1,0-3.7-1.6-3.8-3.7c0-0.1,0-0.2,0-0.4
		C19.1,59.2,20.7,57.6,22.8,57.6z"/>
</g>
</svg>
