<?xml version="1.0" encoding="utf-8"?>
<!-- Generator: Adobe Illustrator 21.0.0, SVG Export Plug-In . SVG Version: 6.00 Build 0)  -->
<svg version="1.1" id="Слой_1" xmlns="http://www.w3.org/2000/svg" xmlns:xlink="http://www.w3.org/1999/xlink" x="0px" y="0px"
	 viewBox="0 0 50 36" style="enable-background:new 0 0 50 36;" xml:space="preserve">
<path d="M5,0C2.3,0,0,2.3,0,5v26c0,2.8,2.3,5,5,5h40c2.8,0,5-2.3,5-5V5c0-2.8-2.3-5-5-5H5z M5,2h40c1.7,0,3,1.3,3,3v26
	c0,1.7-1.3,3-3,3H5c-1.7,0-3-1.3-3-3V5C2,3.3,3.3,2,5,2z M17,6C10.4,6,5,11.4,5,18s5.4,12,12,12c3.1,0,5.9-1.2,8-3.1
	c2.1,1.9,4.9,3.1,8,3.1c6.6,0,12-5.4,12-12S39.6,6,33,6c-3.1,0-5.9,1.2-8,3.1C22.9,7.2,20.1,6,17,6z M33,8c5.5,0,10,4.5,10,10
	s-4.5,10-10,10c-2.6,0-4.9-0.9-6.7-2.5C28,23.4,29,20.8,29,18s-1-5.4-2.7-7.5C28.1,8.9,30.4,8,33,8z"/>
</svg>
