<?xml version="1.0" encoding="utf-8"?>
<!-- Generator: Adobe Illustrator 22.1.0, SVG Export Plug-In . SVG Version: 6.00 Build 0)  -->
<svg version="1.1" id="Слой_1" xmlns="http://www.w3.org/2000/svg" xmlns:xlink="http://www.w3.org/1999/xlink" x="0px" y="0px"
	 viewBox="0 0 166 144" style="enable-background:new 0 0 166 144;" xml:space="preserve">

<polygon class="st0" points="69.3,126.2 62.5,126.2 57.5,121.2 62.5,116.1 69.2,116.1 70.5,116.1 78,108.5 70.5,101 55.5,101 
	51.5,101 46.4,95.9 51.5,90.8 57,90.8 57,90.8 70.5,90.8 78,83.3 70.5,75.7 58.3,75.7 53.2,70.7 58.3,65.6 62.5,65.6 70.5,65.6 
	78,58 70.5,50.5 58.2,50.5 48.1,50.5 43,45.4 48.1,40.4 58.2,40.4 58.2,40.4 70.5,40.4 78,32.8 70.5,25.2 69.6,25.2 63.5,25.2 
	58.5,20.2 63.5,15.1 69.3,15.1 69.3,15.1 70.5,15.1 78,7.5 70.5,0 40.1,0 32.5,7.5 40.1,15.1 40.6,15.1 40.6,15.1 46.1,15.1 
	51.1,20.2 46.1,25.2 39.1,25.2 23.6,25.2 16.1,32.8 23.6,40.4 31.5,40.4 31.5,40.4 31.9,40.4 36.9,45.4 31.9,50.5 29.5,50.5 
	7.2,50.5 -0.3,58 7.2,65.6 18.5,65.6 35.6,65.6 43,65.6 48.1,70.7 43,75.7 18.5,75.7 18.5,75.7 7.2,75.7 -0.3,83.3 7.2,90.8 
	30.7,90.8 30.7,90.8 35.5,90.8 40.5,95.9 35.5,101 33.5,101 23.6,101 16.1,108.5 23.6,116.1 37.8,116.1 47.3,116.1 52.3,121.2 
	47.3,126.2 40.5,126.2 40.1,126.2 32.5,133.8 40.1,141.3 40.8,141.3 70.5,141.3 78,133.8 70.5,126.2 "/>

<polygon class="st0" points="96.8,126.2 103.6,126.2 108.7,121.2 103.6,116.1 96.9,116.1 95.7,116.1 88.1,108.5 95.7,101 110.6,101 
	114.7,101 119.8,95.9 114.7,90.8 109.2,90.8 109.2,90.8 95.7,90.8 88.1,83.3 95.7,75.7 107.9,75.7 112.9,70.7 107.9,65.6 
	103.6,65.6 95.7,65.6 88.1,58 95.7,50.5 108,50.5 118.1,50.5 123.2,45.4 118.1,40.4 108,40.4 108,40.4 95.7,40.4 88.1,32.8 
	95.7,25.2 96.6,25.2 102.6,25.2 107.7,20.2 102.6,15.1 96.9,15.1 96.9,15.1 95.7,15.1 88.1,7.5 95.7,0 126.1,0 133.6,7.5 
	126.1,15.1 125.6,15.1 125.6,15.1 120.1,15.1 115,20.2 120.1,25.2 127.1,25.2 142.5,25.2 150.1,32.8 142.5,40.4 134.6,40.4 
	134.6,40.4 134.3,40.4 129.2,45.4 134.3,50.5 136.7,50.5 158.9,50.5 166.5,58 158.9,65.6 147.7,65.6 130.6,65.6 123.1,65.6 
	118.1,70.7 123.1,75.7 147.7,75.7 147.7,75.7 158.9,75.7 166.5,83.3 158.9,90.8 135.4,90.8 135.4,90.8 130.7,90.8 125.6,95.9 
	130.7,101 132.7,101 142.5,101 150.1,108.5 142.5,116.1 128.4,116.1 118.9,116.1 113.8,121.2 118.9,126.2 125.7,126.2 126.1,126.2 
	133.6,133.8 126.1,141.3 125.4,141.3 95.7,141.3 88.1,133.8 95.7,126.2 "/>
</svg>
