<?xml version="1.0" encoding="utf-8"?>
<!-- Generator: Adobe Illustrator 22.1.0, SVG Export Plug-In . SVG Version: 6.00 Build 0)  -->
<svg version="1.1" id="Слой_1" xmlns="http://www.w3.org/2000/svg" xmlns:xlink="http://www.w3.org/1999/xlink" x="0px" y="0px"
	 viewBox="0 0 48 40.3" style="enable-background:new 0 0 48 40.3;" xml:space="preserve">
<path d="M46.1,0c-1.1,0-1.9,0.9-1.9,1.9c0,0.1,0,0.3,0,0.4c0,0,0,0,0,0l-10,9.3c-0.2-0.1-0.4-0.1-0.5-0.1c-0.3,0-0.7,0.1-0.9,0.2
	l-6.7-4c0,0,0,0,0-0.1c0-1.1-0.9-1.9-1.9-1.9c-1.1,0-1.9,0.9-1.9,1.9c0,0.1,0,0.2,0,0.3l-7,5.6c-0.2-0.1-0.4-0.1-0.7-0.1
	c-1,0-1.8,0.8-1.9,1.7L3,19.6c-0.3-0.2-0.7-0.4-1.1-0.4c-1.1,0-1.9,0.9-1.9,1.9C0,22.2,0.9,23,1.9,23c1,0,1.8-0.8,1.9-1.7l9.4-4.4
	c0.3,0.2,0.7,0.4,1.1,0.4c1.1,0,1.9-0.9,1.9-1.9c0-0.1,0-0.2,0-0.3l7-5.6c0.2,0.1,0.5,0.1,0.7,0.1c0.3,0,0.7-0.1,1-0.3l6.7,4.1
	c0,0,0,0,0,0.1c0,1.1,0.9,1.9,1.9,1.9c1.1,0,1.9-0.9,1.9-1.9c0-0.1,0-0.3,0-0.4v0l10-9.3c0.2,0.1,0.4,0.1,0.5,0.1
	C47.1,3.8,48,3,48,1.9S47.1,0,46.1,0z M46.1,25c-1.1,0-1.9,0.9-1.9,1.9c0,0.1,0,0.3,0,0.4c0,0,0,0,0,0l-10,9.3
	c-0.2-0.1-0.4-0.1-0.6-0.1c-0.2,0-0.3,0-0.5,0.1l-7.3-7.3c0-0.2,0.1-0.3,0.1-0.5c0-1.1-0.9-1.9-1.9-1.9c-1.1,0-1.9,0.9-1.9,1.9
	c0,0.1,0,0.2,0,0.3l-7,5.6c-0.2-0.1-0.4-0.1-0.7-0.1c-0.6,0-1.1,0.3-1.5,0.7l-9.2-1.4c-0.3-0.7-1-1.2-1.8-1.2
	c-1.1,0-1.9,0.9-1.9,1.9c0,1.1,0.9,1.9,1.9,1.9c0.6,0,1.1-0.3,1.5-0.7l9.2,1.4c0.3,0.7,1,1.2,1.8,1.2c1.1,0,1.9-0.9,1.9-1.9
	c0-0.1,0-0.2,0-0.3l7-5.6c0.2,0.1,0.5,0.1,0.7,0.1c0.2,0,0.3,0,0.5-0.1l7.3,7.3c0,0.2-0.1,0.3-0.1,0.5c0,1.1,0.9,1.9,1.9,1.9
	c1.1,0,1.9-0.9,1.9-1.9c0-0.1,0-0.3,0-0.4c0,0,0,0,0,0l10-9.3c0.2,0.1,0.4,0.1,0.5,0.1c1.1,0,1.9-0.9,1.9-1.9S47.1,25,46.1,25z"/>
</svg>
