<?xml version="1.0" encoding="utf-8"?>
<!-- Generator: Adobe Illustrator 22.1.0, SVG Export Plug-In . SVG Version: 6.00 Build 0)  -->
<svg version="1.1" id="Слой_1" xmlns="http://www.w3.org/2000/svg" xmlns:xlink="http://www.w3.org/1999/xlink" x="0px" y="0px"
	 viewBox="0 0 48 48" style="enable-background:new 0 0 48 48;" xml:space="preserve">
<path d="M5.8,0C2.6,0,0,2.6,0,5.8s2.6,5.8,5.8,5.8c1.2,0,2.4-0.4,3.3-1.1l7.5,7.5c-1.4,1.7-2.2,3.8-2.2,6.1c0,1.9,0.6,3.7,1.5,5.2
	l-6.3,5c-1-0.9-2.4-1.5-3.9-1.5c-3.2,0-5.8,2.6-5.8,5.8c0,3.2,2.6,5.8,5.8,5.8s5.8-2.6,5.8-5.8c0-1-0.3-1.9-0.7-2.8l6.3-5
	c1.7,1.8,4.2,2.9,6.9,2.9c1.3,0,2.5-0.2,3.6-0.7l2.5,4.8c-1.4,1.1-2.3,2.7-2.3,4.6c0,3.2,2.6,5.8,5.8,5.8s5.8-2.6,5.8-5.8
	c0-3.2-2.6-5.8-5.8-5.8c-0.6,0-1.2,0.1-1.8,0.3L29.3,32c1.8-1.2,3.2-3,3.9-5.1l3.3,0.7c0,0.1,0,0.2,0,0.2c0,3.2,2.6,5.8,5.8,5.8
	c3.2,0,5.8-2.6,5.8-5.8s-2.6-5.8-5.8-5.8c-2.4,0-4.5,1.5-5.4,3.7L33.5,25c0-0.3,0.1-0.7,0.1-1c0-3.8-2.2-7-5.4-8.6l1.5-4
	c0.3,0.1,0.7,0.1,1,0.1c3.2,0,5.8-2.6,5.8-5.8S33.9,0,30.7,0S25,2.6,25,5.8c0,2.1,1.2,4,2.9,5l-1.5,4c-0.8-0.2-1.6-0.3-2.4-0.3
	c-2.3,0-4.4,0.8-6.1,2.2l-7.5-7.5c0.7-0.9,1.1-2.1,1.1-3.3C11.5,2.6,8.9,0,5.8,0z M5.8,1.9c2.1,0,3.8,1.7,3.8,3.8S7.9,9.6,5.8,9.6
	S1.9,7.9,1.9,5.8S3.6,1.9,5.8,1.9z M30.7,1.9c2.1,0,3.8,1.7,3.8,3.8s-1.7,3.8-3.8,3.8s-3.8-1.7-3.8-3.8S28.6,1.9,30.7,1.9z M24,16.3
	c4.3,0,7.7,3.4,7.7,7.7c0,4.3-3.4,7.7-7.7,7.7c-4.3,0-7.7-3.4-7.7-7.7c0-2.1,0.8-3.9,2.1-5.3c0.1-0.1,0.2-0.1,0.2-0.2
	C20,17.1,21.9,16.3,24,16.3z M42.2,24c2.1,0,3.8,1.7,3.8,3.8s-1.7,3.8-3.8,3.8c-2.1,0-3.8-1.7-3.8-3.8S40.1,24,42.2,24z M5.8,34.6
	c2.1,0,3.8,1.7,3.8,3.8c0,2.1-1.7,3.8-3.8,3.8s-3.8-1.7-3.8-3.8C1.9,36.3,3.6,34.6,5.8,34.6z M33.6,38.4c2.1,0,3.8,1.7,3.8,3.8
	c0,2.1-1.7,3.8-3.8,3.8s-3.8-1.7-3.8-3.8c0-1.5,0.8-2.7,2-3.4c0,0,0.1,0,0.1,0c0,0,0,0,0,0c0,0,0,0,0.1,0
	C32.4,38.5,33,38.4,33.6,38.4z"/>
</svg>
