<?xml version="1.0" encoding="utf-8"?>
<!-- Generator: Adobe Illustrator 22.1.0, SVG Export Plug-In . SVG Version: 6.00 Build 0)  -->
<svg version="1.1" id="Layer_1" xmlns="http://www.w3.org/2000/svg" xmlns:xlink="http://www.w3.org/1999/xlink" x="0px" y="0px"
	 viewBox="0 0 60 60" style="enable-background:new 0 0 60 60;" xml:space="preserve">
<style type="text/css">
	.st0{fill:#007AB9;}
</style>
<path class="st0" d="M46.8,44.1V32.4c0-6.3-3.3-9.2-7.8-9.2c-3.6,0-5.2,2-6.1,3.4v-2.9h-6.8c0.1,1.9,0,20.4,0,20.4h6.8V32.7
	c0-0.6,0-1.2,0.2-1.7c0.5-1.2,1.6-2.5,3.5-2.5c2.5,0,3.4,1.9,3.4,4.6v10.9L46.8,44.1L46.8,44.1z M19,20.9c2.4,0,3.8-1.6,3.8-3.5
	c0-2-1.5-3.5-3.8-3.5s-3.8,1.5-3.8,3.5C15.2,19.4,16.6,20.9,19,20.9L19,20.9z M30,60C13.4,60,0,46.6,0,30C0,13.4,13.4,0,30,0
	s30,13.4,30,30C60,46.6,46.6,60,30,60z M22.4,44.1V23.7h-6.8v20.4H22.4z"/>
</svg>
