<?xml version="1.0" encoding="utf-8"?>
<!-- Generator: Adobe Illustrator 22.1.0, SVG Export Plug-In . SVG Version: 6.00 Build 0)  -->
<svg version="1.1" id="icon-icon" xmlns="http://www.w3.org/2000/svg" xmlns:xlink="http://www.w3.org/1999/xlink" x="0px" y="0px"
	 viewBox="0 0 563.1 465.5" style="enable-background:new 0 0 563.1 465.5;" xml:space="preserve">
<path d="M109,0c-0.4,0.1-0.8,0.2-1.2,0.4H10C4.1,1.5-0.1,6.7,0,12.6v97.9c0,6.7,5.5,12.2,12.2,12.2h538.6c6.7,0,12.2-5.5,12.2-12.2
	V12.6c0-6.7-5.5-12.2-12.2-12.2H112.9C111.6,0.1,110.3-0.1,109,0z M36.7,24.9h49c0,6.7,5.5,12.2,12.2,12.2v49
	c-6.7,0-12.2,5.5-12.2,12.2h-49c0-6.7-5.5-12.2-12.2-12.2v-49C31.2,37.1,36.7,31.6,36.7,24.9z M122.4,24.9h416.2v73.4H122.4V24.9z
	 M61.2,49.4c-6.7,0-12.2,5.5-12.2,12.2s5.5,12.2,12.2,12.2s12.2-5.5,12.2-12.2S68,49.4,61.2,49.4z M402.8,171.4
	c-0.4,0.1-0.8,0.2-1.1,0.4H10C4.1,172.9-0.1,178,0,184v97.9c0,6.7,5.5,12.2,12.2,12.2h538.6c6.7,0,12.2-5.5,12.2-12.2V184
	c0-6.7-5.5-12.2-12.2-12.2H406.6C405.4,171.4,404.1,171.3,402.8,171.4L402.8,171.4z M36.7,196.2h49c0,6.7,5.5,12.2,12.2,12.2
	s12.2-5.5,12.2-12.2h49c0,6.7,5.5,12.2,12.2,12.2c6.7,0,12.2-5.5,12.2-12.2h49c0,6.7,5.5,12.2,12.2,12.2c6.7,0,12.2-5.5,12.2-12.2
	h49c0,6.7,5.5,12.2,12.2,12.2s12.2-5.5,12.2-12.2h49c0,6.7,5.5,12.2,12.2,12.2v49c-6.7,0-12.2,5.5-12.2,12.2h-49
	c0-6.7-5.5-12.2-12.2-12.2S306,263,306,269.7h-49c0-6.7-5.5-12.2-12.2-12.2c-6.7,0-12.2,5.5-12.2,12.2h-49c0-6.7-5.5-12.2-12.2-12.2
	s-12.2,5.5-12.2,12.2h-49c0-6.7-5.5-12.2-12.2-12.2s-12.2,5.5-12.2,12.2h-49c0-6.7-5.5-12.2-12.2-12.2v-49
	C31.2,208.5,36.7,203,36.7,196.2z M416.2,196.2h122.4v73.4H416.2V196.2z M61.2,220.7c-6.7,0-12.2,5.5-12.2,12.2s5.5,12.2,12.2,12.2
	s12.2-5.5,12.2-12.2S68,220.7,61.2,220.7z M134.7,220.7c-6.7,0-12.2,5.5-12.2,12.2s5.5,12.2,12.2,12.2c6.7,0,12.2-5.5,12.2-12.2
	S141.4,220.7,134.7,220.7z M208.1,220.7c-6.7,0-12.2,5.5-12.2,12.2s5.5,12.2,12.2,12.2c6.7,0,12.2-5.5,12.2-12.2
	S214.8,220.7,208.1,220.7z M281.5,220.7c-6.7,0-12.2,5.5-12.2,12.2s5.5,12.2,12.2,12.2s12.2-5.5,12.2-12.2S288.3,220.7,281.5,220.7z
	 M355,220.7c-6.7,0-12.2,5.5-12.2,12.2s5.5,12.2,12.2,12.2s12.2-5.5,12.2-12.2S361.7,220.7,355,220.7z M255.9,342.8
	c-0.4,0.1-0.8,0.2-1.1,0.4H9.9c-5.8,1.1-10,6.3-9.9,12.2v97.9c0,6.7,5.5,12.2,12.2,12.2h538.6c6.7,0,12.2-5.5,12.2-12.2v-97.9
	c0-6.7-5.5-12.2-12.2-12.2h-291C258.5,342.8,257.2,342.6,255.9,342.8z M36.7,367.6h49c0,6.7,5.5,12.2,12.2,12.2s12.2-5.5,12.2-12.2
	h49c0,6.7,5.5,12.2,12.2,12.2c6.7,0,12.2-5.5,12.2-12.2h49c0,6.7,5.5,12.2,12.2,12.2v49c-6.7,0-12.2,5.5-12.2,12.2h-49
	c0-6.7-5.5-12.2-12.2-12.2s-12.2,5.5-12.2,12.2h-49c0-6.7-5.5-12.2-12.2-12.2s-12.2,5.5-12.2,12.2h-49c0-6.7-5.5-12.2-12.2-12.2v-49
	C31.2,379.8,36.7,374.3,36.7,367.6z M269.3,367.6h269.3V441H269.3V367.6z M61.2,392.1c-6.7,0-12.2,5.5-12.2,12.2s5.5,12.2,12.2,12.2
	s12.2-5.5,12.2-12.2S68,392.1,61.2,392.1z M134.7,392.1c-6.7,0-12.2,5.5-12.2,12.2s5.5,12.2,12.2,12.2c6.7,0,12.2-5.5,12.2-12.2
	S141.4,392.1,134.7,392.1z M208.1,392.1c-6.7,0-12.2,5.5-12.2,12.2s5.5,12.2,12.2,12.2c6.7,0,12.2-5.5,12.2-12.2
	S214.8,392.1,208.1,392.1z"/>
</svg>
