<?xml version="1.0" encoding="utf-8"?>
<!-- Generator: Adobe Illustrator 22.1.0, SVG Export Plug-In . SVG Version: 6.00 Build 0)  -->
<svg version="1.1" id="Слой_1" xmlns="http://www.w3.org/2000/svg" xmlns:xlink="http://www.w3.org/1999/xlink" x="0px" y="0px"
	 viewBox="0 0 563 587.5" style="enable-background:new 0 0 563 587.5;" xml:space="preserve">
<path d="M122.4,0C109,0,97.9,11.1,97.9,24.5V49H24.5c-6.4,0-12.9,2.3-17.5,7C2.3,60.5,0,67,0,73.4V563c0,6.4,2.3,12.9,7,17.6
	c4.6,4.6,11.1,6.9,17.5,6.9h514.1c6.4,0,12.9-2.3,17.6-6.9c4.6-4.7,6.9-11.1,6.9-17.6V73.4c0-6.4-2.3-12.9-6.9-17.5
	c-4.7-4.7-11.1-7-17.6-7h-73.4V24.5C465.1,11.1,454,0,440.6,0h-24.5c-13.4,0-24.5,11.1-24.5,24.5V49H171.4V24.5
	c0-13.4-11.1-24.5-24.5-24.5H122.4z M122.4,24.5h24.5v73.4h-24.5V24.5z M416.2,24.5h24.5v73.4h-24.5V24.5z M24.5,73.4h73.4v24.5
	c0,13.4,11.1,24.5,24.5,24.5h24.5c13.4,0,24.5-11.1,24.5-24.5V73.4h220.3v24.5c0,13.4,11.1,24.5,24.5,24.5h24.5
	c13.4,0,24.5-11.1,24.5-24.5V73.4h73.4v85.7H24.5V73.4z M24.5,183.6h514.1V563H24.5V183.6z M97.9,232.6v281.5h367.2V232.6H97.9z
	 M122.4,257h61.2v61.2h-61.2V257z M208.1,257h61.2v61.2h-61.2V257z M293.8,257H355v61.2h-61.2V257z M379.4,257h61.2v61.2h-61.2V257z
	 M122.4,342.7h61.2v61.2h-61.2V342.7z M208.1,342.7h61.2v61.2h-61.2V342.7z M293.8,342.7H355v61.2h-61.2V342.7z M379.4,342.7h61.2
	v61.2h-61.2V342.7z M122.4,428.4h61.2v61.2h-61.2V428.4z M208.1,428.4h61.2v61.2h-61.2V428.4z M293.8,428.4H355v61.2h-61.2V428.4z
	 M379.4,428.4h61.2v61.2h-61.2V428.4z"/>
</svg>
