<?xml version="1.0" encoding="utf-8"?>
<!-- Generator: Adobe Illustrator 22.1.0, SVG Export Plug-In . SVG Version: 6.00 Build 0)  -->
<svg version="1.1" id="Слой_1" xmlns="http://www.w3.org/2000/svg" xmlns:xlink="http://www.w3.org/1999/xlink" x="0px" y="0px"
	 viewBox="0 0 30.7 36.5" style="enable-background:new 0 0 30.7 36.5;" xml:space="preserve">
<path d="M2.9,0C1.2,0,0,1.2,0,2.9v28.8l1.9-1.9V2.9c0-0.6,0.4-1,1-1h25c0.6,0,1,0.4,1,1v30.7c0,0.6-0.4,1-1,1H6.7l-1.9,1.9h23
	c1.6,0,2.9-1.2,2.9-2.9V2.9c0-1.6-1.2-2.9-2.9-2.9H2.9z M6.7,18.2v1.9H15L0.1,35l1.3,1.3l14.9-14.9v8.3h1.9V18.2H6.7z"/>
</svg>
