<?xml version="1.0" encoding="utf-8"?>
<!-- Generator: Adobe Illustrator 22.1.0, SVG Export Plug-In . SVG Version: 6.00 Build 0)  -->
<svg version="1.1" id="Слой_1" xmlns="http://www.w3.org/2000/svg" xmlns:xlink="http://www.w3.org/1999/xlink" x="0px" y="0px"
	 viewBox="0 0 514.1 526" style="enable-background:new 0 0 514.1 526;" xml:space="preserve">
<path d="M374.8,0c-9.5,0.2-20.1,2.3-33.3,5.8c-37.7,10-254.7,70-254.7,70c-0.4,0.1-0.8,0.2-1.2,0.4c-34.4,13-56,25.2-69.2,42.8
	c-13.1,17.6-16,38.7-16.1,63.9v8c-0.1,1.5-0.4,3.1-0.4,4.6v261.6C0,494.9,31,526,68.8,526h376.4c37.8,0,68.9-31,68.9-68.9V193.6
	c0-39.1-34.9-71.5-73.4-71.5H73.4c-13.7,0-26.1,3.9-36.4,10.3c8.9-11,25.7-21.3,56.2-32.9c0.3-0.1,0.4-0.2,0.8-0.4
	c1.4-0.4,217.1-60,253.6-69.6c12.1-3.2,21.2-4.9,27.5-5c6.3-0.1,9.3,0.9,10.7,1.9c1.4,1.1,2.6,3.1,3.8,8c1.2,4.9,1.9,12.4,1.9,22.2
	v40.9h24.5V56.6c0-10.6-0.7-19.6-2.7-27.9c-2-8.3-5.9-16.5-13-21.8C393.4,1.6,384.4-0.1,374.8,0L374.8,0z M73.4,146.5h367.2
	c23.9,0,49,23.7,49,47.1v263.5c0,24.6-19.8,44.4-44.4,44.4H68.8c-24.6,0-44.4-19.7-44.4-44.4V213.5l0.4-20.3c0.7-8.3,5-20.2,13-29.5
	C46.6,153.6,58.5,146.5,73.4,146.5z M422.3,293.4c-16.9,0-30.6,13.7-30.6,30.6s13.7,30.6,30.6,30.6c16.9,0,30.6-13.7,30.6-30.6
	S439.2,293.4,422.3,293.4z"/>
</svg>
