<?xml version="1.0" encoding="utf-8"?>
<!-- Generator: Adobe Illustrator 22.1.0, SVG Export Plug-In . SVG Version: 6.00 Build 0)  -->
<svg version="1.1" id="Слой_1" xmlns="http://www.w3.org/2000/svg" xmlns:xlink="http://www.w3.org/1999/xlink" x="0px" y="0px"
	 viewBox="0 0 489.8 489.8" style="enable-background:new 0 0 489.8 489.8;" xml:space="preserve">
<path d="M204,0C91.6,0,0,91.6,0,204s91.6,204,204,204c48.9,0,93.8-17.3,129-46.2l121.8,121.8c7.8,8.1,20.7,8.3,28.8,0.5
	c8.1-7.8,8.3-20.7,0.5-28.8c-0.2-0.2-0.3-0.3-0.5-0.5L361.8,333c28.8-35.2,46.2-80.1,46.2-129C408,91.6,316.4,0,204,0z M204,40.8
	c90.4,0,163.2,72.8,163.2,163.2S294.4,367.2,204,367.2S40.8,294.4,40.8,204S113.6,40.8,204,40.8z"/>
</svg>
