<?xml version="1.0" encoding="utf-8"?>
<!-- Generator: Adobe Illustrator 22.1.0, SVG Export Plug-In . SVG Version: 6.00 Build 0)  -->
<svg version="1.1" id="Слой_1" xmlns="http://www.w3.org/2000/svg" xmlns:xlink="http://www.w3.org/1999/xlink" x="0px" y="0px"
	 viewBox="0 0 48 40.9" style="enable-background:new 0 0 48 40.9;" xml:space="preserve">
<path d="M19.1,0c-4.5,0.1-7.4,1.9-8.6,4.7c-1.2,2.7-0.9,6.1-0.1,9.6c-0.5,0.5-0.8,1.3-0.7,2.3c0.1,1.2,0.5,2,0.9,2.6
	c0.3,0.3,0.6,0.4,0.9,0.5c0.2,1,0.4,2,0.9,2.9c0.2,0.5,0.5,0.9,0.8,1.3c0.1,0.2,0.3,0.3,0.4,0.4c0,1.2,0,2.2-0.1,3.4
	c-0.3,0.8-1,1.4-2.2,2c-1.2,0.6-2.8,1.2-4.4,1.9c-1.6,0.7-3.3,1.5-4.6,2.8S0.1,37.5,0,39.9l-0.1,1h38.5l-0.1-1
	c-0.1-1.7-0.6-3-1.3-4.2h10.9l-0.1-1c-0.1-2-0.9-3.6-2-4.8s-2.5-1.8-3.9-2.4c-1.4-0.6-2.7-1-3.7-1.5c-1-0.5-1.5-1-1.8-1.6
	c-0.1-1-0.1-1.8-0.1-2.8c0.1-0.1,0.2-0.2,0.3-0.3c0.2-0.3,0.5-0.7,0.7-1.1c0.3-0.7,0.6-1.5,0.7-2.4c0.3-0.1,0.5-0.2,0.7-0.4
	c0.4-0.5,0.7-1.2,0.8-2.3v0c0.1-0.9-0.2-1.5-0.5-1.9c0.4-1.3,0.9-3.4,0.7-5.5c-0.1-1.2-0.4-2.4-1.1-3.4c-0.7-0.9-1.8-1.6-3.2-1.9
	c-0.9-1-2.4-1.5-4-1.5c-2.3,0-4.1,0.6-5.5,1.6C25.5,2.2,24.8,2,24,1.8C23,0.5,21.2,0,19.1,0L19.1,0z M19.1,1.9
	C19.1,1.9,19.1,1.9,19.1,1.9c1,0,1.8,0.1,2.4,0.4c0,0,0,0,0,0c0.1,0.1,0.2,0.1,0.3,0.1c0,0,0,0,0.1,0c0.4,0.2,0.6,0.4,0.8,0.7
	l0.2,0.4l0.4,0.1c0.3,0,0.6,0.1,0.9,0.2C24.1,3.9,24,4.2,24,4.4c0,0.5,0.4,1,1,1c0.4,0,0.7-0.2,0.8-0.6C25.9,4.9,25.9,5,26,5
	c0.5,0.7,0.8,1.8,0.9,2.9c0.2,2.3-0.5,5-0.9,6.2L25.8,15l0.7,0.4c0,0,0.4,0.3,0.3,1.1c-0.1,0.9-0.3,1.4-0.5,1.6s-0.3,0.2-0.3,0.2
	l-0.8,0.1L25,19.1c-0.1,0.5-0.2,1.1-0.4,1.7C24.3,21,24,21.3,24,21.7c0,0.1,0,0.2,0.1,0.3c-0.1,0.3-0.3,0.5-0.4,0.7
	c-0.2,0.2-0.4,0.4-0.3,0.3l-0.5,0.3v0.6c0,0.1,0,0.1,0,0.2c-0.2-0.3-0.5-0.5-0.8-0.5c-0.5,0-1,0.4-1,1s0.4,1,1,1
	c0.3,0,0.6-0.2,0.8-0.5c0,0.9,0,1.9,0.1,3v0.1l0.1,0.1c0.5,1.5,1.8,2.4,3.2,3.1c1.1,0.6,2.4,1,3.6,1.5c0,0.1-0.1,0.2-0.1,0.3
	c0,0.5,0.4,1,1,1c0.4,0,0.7-0.2,0.8-0.5c1,0.5,1.9,1,2.6,1.6c0,0,0,0,0,0c0,0,0,0,0.1,0.1c-0.2-0.1-0.4-0.2-0.6-0.2
	c-0.5,0-1,0.4-1,1c0,0.5,0.4,1,1,1c0.5,0,1-0.4,1-1c0-0.3-0.1-0.5-0.2-0.7c0.1,0.1,0.1,0.1,0.2,0.2c0,0,0,0,0,0c0,0,0.1,0.1,0.1,0.1
	c0.6,0.6,1.1,1.5,1.4,2.5c-0.3,0.2-0.5,0.5-0.5,0.8h-3.8c0-0.5-0.4-1-1-1s-1,0.4-1,1h-3.8c0-0.5-0.4-1-1-1s-1,0.4-1,1h-3.8
	c0-0.5-0.4-1-1-1c-0.5,0-1,0.4-1,1h-3.8c0-0.5-0.4-1-1-1c-0.5,0-1,0.4-1,1H8.6c0-0.5-0.4-1-1-1s-1,0.4-1,1H2.9
	c0-0.4-0.2-0.6-0.5-0.8c0.3-1,0.7-1.8,1.4-2.5c0.1-0.1,0.2-0.2,0.4-0.3c0.8-0.7,1.7-1.3,2.7-1.8c0.2,0.3,0.5,0.5,0.8,0.5
	c0.5,0,1-0.4,1-1c0-0.1,0-0.2-0.1-0.3c1.2-0.5,2.5-0.9,3.6-1.5c1.4-0.7,2.7-1.6,3.2-3.1l0.1-0.2c0.1-1.1,0.1-2,0.1-2.9
	c0.2,0.2,0.4,0.4,0.8,0.4c0.5,0,1-0.4,1-1s-0.4-1-1-1c-0.3,0-0.6,0.2-0.8,0.4c0,0,0-0.1,0-0.1v-0.6l-0.5-0.3c0.1,0-0.1-0.1-0.3-0.3
	c-0.1-0.2-0.3-0.4-0.4-0.7c0-0.1,0.1-0.2,0.1-0.4c0-0.4-0.3-0.7-0.6-0.9c-0.2-0.6-0.4-1.2-0.4-1.7l-0.1-0.8l-0.8-0.1
	c0,0-0.1,0-0.3-0.2c-0.2-0.2-0.4-0.7-0.5-1.6c-0.1-0.8,0.3-1.1,0.3-1.1l0.6-0.4l-0.2-0.7c-0.9-3.5-1.1-6.6-0.1-8.8
	c0.1-0.2,0.2-0.4,0.3-0.7c0.2,0.3,0.5,0.5,0.8,0.5c0.5,0,1-0.4,1-1c0-0.4-0.3-0.8-0.7-0.9C14.3,3,15,2.6,15.9,2.4
	c0.1,0.1,0.2,0.1,0.4,0.1c0.3,0,0.6-0.1,0.8-0.4C17.7,2,18.3,1.9,19.1,1.9z M4.1,35.4c-0.2,0.2-0.3,0.4-0.3,0.7c0,0.5,0.4,1,1,1
	s1-0.4,1-1c0-0.5-0.4-1-1-1C4.5,35.1,4.3,35.2,4.1,35.4z M31.6,2.9C31.6,2.9,31.6,2.9,31.6,2.9c1.6,0,2.6,0.5,2.9,0.9l0.2,0.4
	l0.5,0.1c1.1,0.2,1.7,0.5,2.1,1.1C37.7,6,38,6.9,38,7.8c0.1,1.9-0.4,4.2-0.8,5.2L37,13.8l0.7,0.4c-0.1-0.1,0.3,0.1,0.2,0.8
	c-0.1,0.8-0.3,1.2-0.4,1.3c-0.1,0.2-0.2,0.1-0.1,0.1l-0.8,0.1l-0.1,0.8c-0.1,0.7-0.4,1.5-0.7,2.2c-0.2,0.3-0.3,0.6-0.5,0.8
	c-0.1,0.1-0.1,0.2-0.2,0.2h0c0,0,0,0,0,0l-0.5,0.2v0.6c0,1.2,0,2.1,0.1,3.5v0.1l0.1,0.1c0.5,1.3,1.6,2.1,2.8,2.7
	c1.2,0.6,2.5,1,3.8,1.6c1.3,0.5,2.4,1.2,3.2,2c0.6,0.6,1,1.5,1.3,2.5H35.4c-1.2-1-2.5-1.7-3.9-2.3c-1.6-0.7-3.2-1.3-4.4-1.9
	c-1.2-0.6-1.9-1.2-2.2-1.9c-0.1-1.3-0.1-2.3-0.1-3.5c0.1-0.1,0.3-0.2,0.4-0.4c0.3-0.4,0.5-0.8,0.8-1.3c0.4-0.8,0.7-1.8,0.9-2.9
	c0.3-0.2,0.6-0.2,0.9-0.5c0.5-0.6,0.8-1.4,0.9-2.6c0.1-1-0.2-1.7-0.7-2.3c0.5-1.5,1.1-4,0.9-6.5c-0.1-1.4-0.5-2.8-1.3-3.9
	c0,0,0,0,0,0C28.5,3.3,29.8,2.9,31.6,2.9z M19.2,3.4c-0.5,0-1,0.4-1,1s0.4,1,1,1c0.5,0,1-0.4,1-1S19.7,3.4,19.2,3.4z M16.3,6.3
	c-0.5,0-1,0.4-1,1s0.4,1,1,1c0.5,0,1-0.4,1-1S16.8,6.3,16.3,6.3z M22.1,6.3c-0.5,0-1,0.4-1,1s0.4,1,1,1s1-0.4,1-1S22.6,6.3,22.1,6.3
	z M13.4,9.2c-0.5,0-1,0.4-1,1c0,0.5,0.4,1,1,1c0.5,0,1-0.4,1-1C14.4,9.6,14,9.2,13.4,9.2z M19.2,9.2c-0.5,0-1,0.4-1,1
	c0,0.5,0.4,1,1,1c0.5,0,1-0.4,1-1C20.2,9.6,19.7,9.2,19.2,9.2z M25,9.2c-0.5,0-1,0.4-1,1c0,0.5,0.4,1,1,1s1-0.4,1-1
	C25.9,9.6,25.5,9.2,25,9.2z M16.3,12.1c-0.5,0-1,0.4-1,1c0,0.5,0.4,1,1,1c0.5,0,1-0.4,1-1C17.3,12.5,16.8,12.1,16.3,12.1z
	 M22.1,12.1c-0.5,0-1,0.4-1,1c0,0.5,0.4,1,1,1s1-0.4,1-1C23,12.5,22.6,12.1,22.1,12.1z M13.4,15c-0.5,0-1,0.4-1,1c0,0.5,0.4,1,1,1
	c0.5,0,1-0.4,1-1C14.4,15.4,14,15,13.4,15z M19.2,15c-0.5,0-1,0.4-1,1c0,0.5,0.4,1,1,1c0.5,0,1-0.4,1-1C20.2,15.4,19.7,15,19.2,15z
	 M25,15c-0.5,0-1,0.4-1,1c0,0.5,0.4,1,1,1s1-0.4,1-1C25.9,15.4,25.5,15,25,15z M16.3,17.9c-0.5,0-1,0.4-1,1s0.4,1,1,1
	c0.5,0,1-0.4,1-1S16.8,17.9,16.3,17.9z M22.1,17.9c-0.5,0-1,0.4-1,1s0.4,1,1,1s1-0.4,1-1S22.6,17.9,22.1,17.9z M19.2,20.7
	c-0.5,0-1,0.4-1,1c0,0.5,0.4,1,1,1c0.5,0,1-0.4,1-1C20.2,21.2,19.7,20.7,19.2,20.7z M19.2,26.5c-0.5,0-1,0.4-1,1c0,0.5,0.4,1,1,1
	c0.5,0,1-0.4,1-1C20.2,26.9,19.7,26.5,19.2,26.5z M16.3,29.4c-0.5,0-1,0.4-1,1c0,0.5,0.4,1,1,1c0.5,0,1-0.4,1-1
	C17.3,29.8,16.8,29.4,16.3,29.4z M22.1,29.4c-0.5,0-1,0.4-1,1c0,0.5,0.4,1,1,1s1-0.4,1-1C23,29.8,22.6,29.4,22.1,29.4z M13.4,32.3
	c-0.5,0-1,0.4-1,1s0.4,1,1,1c0.5,0,1-0.4,1-1S14,32.3,13.4,32.3z M19.2,32.3c-0.5,0-1,0.4-1,1s0.4,1,1,1c0.5,0,1-0.4,1-1
	S19.7,32.3,19.2,32.3z M25,32.3c-0.5,0-1,0.4-1,1s0.4,1,1,1s1-0.4,1-1S25.5,32.3,25,32.3z M10.6,35.1c-0.5,0-1,0.4-1,1
	c0,0.5,0.4,1,1,1c0.5,0,1-0.4,1-1C11.5,35.6,11.1,35.1,10.6,35.1z M16.3,35.1c-0.5,0-1,0.4-1,1c0,0.5,0.4,1,1,1c0.5,0,1-0.4,1-1
	C17.3,35.6,16.8,35.1,16.3,35.1z M22.1,35.1c-0.5,0-1,0.4-1,1c0,0.5,0.4,1,1,1s1-0.4,1-1C23,35.6,22.6,35.1,22.1,35.1z M27.8,35.1
	c-0.5,0-1,0.4-1,1c0,0.5,0.4,1,1,1c0.5,0,1-0.4,1-1C28.8,35.6,28.4,35.1,27.8,35.1z"/>
</svg>
