<?xml version="1.0" encoding="utf-8"?>
<!-- Generator: Adobe Illustrator 22.1.0, SVG Export Plug-In . SVG Version: 6.00 Build 0)  -->
<svg version="1.1" id="Слой_1" xmlns="http://www.w3.org/2000/svg" xmlns:xlink="http://www.w3.org/1999/xlink" x="0px" y="0px"
	 viewBox="0 0 44.2 44.1" style="enable-background:new 0 0 44.2 44.1;" xml:space="preserve">
<path d="M22.1,0c0,0-0.1,0-0.1,0C9.8,0.1,0,9.9,0,22.1c0,12.2,9.9,22.1,22.1,22.1s22.1-9.9,22.1-22.1c0-12.1-9.8-22-21.9-22.1
	C22.2,0,22.1,0,22.1,0z M22.1,1.9c11.1,0,20.2,9,20.2,20.2s-9,20.2-20.2,20.2s-20.2-9-20.2-20.2S10.9,1.9,22.1,1.9z M14.4,15.3
	c-1.6,0-2.9,1.3-2.9,2.9c0,1.6,1.3,2.9,2.9,2.9s2.9-1.3,2.9-2.9C17.3,16.6,16,15.3,14.4,15.3z M29.8,15.3c-1.6,0-2.9,1.3-2.9,2.9
	c0,1.6,1.3,2.9,2.9,2.9c1.6,0,2.9-1.3,2.9-2.9C32.6,16.6,31.4,15.3,29.8,15.3z M9.6,25.9c-0.5,0-0.9,0.5-0.9,1
	c0,0.2,0.1,0.4,0.2,0.5c0,0,5,7.1,13.3,7.1s13.3-7.1,13.3-7.1c0.3-0.4,0.2-1-0.2-1.3c-0.4-0.3-1-0.2-1.3,0.2c0,0-4.6,6.3-11.7,6.3
	s-11.7-6.3-11.7-6.3C10.2,26,9.9,25.9,9.6,25.9z"/>
</svg>
