<?xml version="1.0" encoding="utf-8"?>
<!-- Generator: Adobe Illustrator 22.1.0, SVG Export Plug-In . SVG Version: 6.00 Build 0)  -->
<svg version="1.1" id="Слой_1" xmlns="http://www.w3.org/2000/svg" xmlns:xlink="http://www.w3.org/1999/xlink" x="0px" y="0px"
	 viewBox="0 0 58 58" style="enable-background:new 0 0 58 58;" xml:space="preserve">
<g id="surface1">
	<path d="M29,0C13,0,0,13,0,29s13,29,29,29s29-13,29-29S45,0,29,0z M29,2c14.9,0,27,12.1,27,27S43.9,56,29,56S2,43.9,2,29
		S14.1,2,29,2z M28.6,6C22.7,6.1,17,8.5,12.7,12.7c-9,9-9,23.6,0,32.5c0.2,0.2,0.5,0.3,0.7,0.3c0.3,0,0.5-0.1,0.7-0.3
		c0.4-0.4,0.4-1,0-1.4C6,35.7,6,22.3,14.2,14.2c4.7-4.8,11.5-6.9,18.2-5.9c0.5,0.1,1.1-0.3,1.1-0.8c0.1-0.5-0.3-1.1-0.8-1.1
		C31.3,6.1,29.9,6,28.6,6z M36.7,7.4c-0.4,0-0.7,0.3-0.9,0.6c-0.2,0.5,0.1,1.1,0.6,1.3c0.7,0.3,1.4,0.6,2.1,0.9
		c0.1,0.1,0.3,0.1,0.4,0.1c0.4,0,0.7-0.2,0.9-0.6c0.2-0.5,0-1.1-0.4-1.3c-0.7-0.4-1.5-0.7-2.3-1C36.9,7.4,36.8,7.4,36.7,7.4z
		 M42.4,10.7c-0.3,0-0.5,0.2-0.7,0.4c-0.3,0.4-0.3,1.1,0.2,1.4c0.7,0.5,1.3,1.1,1.9,1.7c8.2,8.2,8.2,21.5,0,29.7
		c-0.4,0.4-0.4,1,0,1.4c0.2,0.2,0.5,0.3,0.7,0.3c0.3,0,0.5-0.1,0.7-0.3c9-9,9-23.6,0-32.5c-0.7-0.7-1.4-1.3-2.1-1.9
		C43,10.7,42.7,10.6,42.4,10.7z M20.5,19.5c-0.3,0-0.5,0.1-0.7,0.3c-0.4,0.4-0.4,1,0,1.4l7.8,7.8l-7.8,7.8c-0.4,0.4-0.4,1,0,1.4
		c0.2,0.2,0.4,0.3,0.7,0.3s0.5-0.1,0.7-0.3l7.8-7.8l7.8,7.8c0.2,0.2,0.4,0.3,0.7,0.3s0.5-0.1,0.7-0.3c0.4-0.4,0.4-1,0-1.4L30.4,29
		l7.8-7.8c0.4-0.4,0.4-1,0-1.4s-1-0.4-1.4,0L29,27.6l-7.8-7.8C21,19.6,20.8,19.5,20.5,19.5z M19.4,45.4c-0.4,0-0.8,0.1-1,0.5l-1,1.7
		c-0.3,0.5-0.1,1.1,0.4,1.4c0.2,0.1,0.3,0.1,0.5,0.1c0.3,0,0.7-0.2,0.9-0.5l1-1.7c0.3-0.5,0.1-1.1-0.4-1.4
		C19.6,45.5,19.5,45.4,19.4,45.4z M38.6,45.4c-0.1,0-0.3,0.1-0.4,0.1c-0.5,0.3-0.6,0.9-0.4,1.4l1,1.7c0.2,0.3,0.5,0.5,0.9,0.5
		c0.2,0,0.3,0,0.5-0.1c0.5-0.3,0.6-0.9,0.4-1.4l-1-1.7C39.4,45.5,39,45.3,38.6,45.4z M23.8,47.3c-0.4,0.1-0.7,0.3-0.8,0.7L22.5,50
		c-0.1,0.5,0.2,1.1,0.7,1.2c0.1,0,0.2,0,0.3,0c0.4,0,0.8-0.3,1-0.7l0.5-1.9c0.1-0.5-0.2-1.1-0.7-1.2C24.1,47.3,23.9,47.3,23.8,47.3z
		 M34.2,47.3c-0.1,0-0.3,0-0.4,0c-0.5,0.1-0.8,0.7-0.7,1.2l0.5,1.9c0.1,0.4,0.5,0.7,1,0.7c0.1,0,0.2,0,0.3,0
		c0.5-0.1,0.9-0.7,0.7-1.2L35,48.1C34.9,47.7,34.6,47.4,34.2,47.3z M29,48c-0.6,0-1,0.4-1,1v2c0,0.6,0.4,1,1,1s1-0.4,1-1v-2
		C30,48.4,29.6,48,29,48z"/>
</g>
</svg>
