<?xml version="1.0" encoding="utf-8"?>
<!-- Generator: Adobe Illustrator 22.1.0, SVG Export Plug-In . SVG Version: 6.00 Build 0)  -->
<svg version="1.1" id="Слой_1" xmlns="http://www.w3.org/2000/svg" xmlns:xlink="http://www.w3.org/1999/xlink" x="0px" y="0px"
	 viewBox="0 0 329.5 517.8" style="enable-background:new 0 0 329.5 517.8;" xml:space="preserve">
<path d="M211.3,500.8l23.5-312.6h74.1c7.7,0,13.5-3.8,19.3-11.3c1.9-7.5,1.9-15.1-1.9-20.7C272.2,79,181.7,5.5,177.8,3.7
	c-3.7-1.8-9.2-3.6-13.1-3.7l-0.4-0.1c-3.9,0-9.7,1.8-11.6,3.8C148.9,5.5,58.1,77.1,4,156.2c-3.9,7.5-5.8,15.1-1.9,20.7
	c3.9,7.5,9.7,11.3,17.4,11.3h74.1l23.5,312.6c7.5,9.4,26.5,16.9,47.2,16.9C183.1,517.8,203.7,512.1,211.3,500.8L211.3,500.8z"/>
</svg>
