<?xml version="1.0" encoding="utf-8"?>
<!-- Generator: Adobe Illustrator 22.1.0, SVG Export Plug-In . SVG Version: 6.00 Build 0)  -->
<svg version="1.1" id="Слой_1" xmlns="http://www.w3.org/2000/svg" xmlns:xlink="http://www.w3.org/1999/xlink" x="0px" y="0px"
	 viewBox="0 0 44 44.2" style="enable-background:new 0 0 44 44.2;" xml:space="preserve">
<path d="M21.9,0c-0.8,0-1.7,0.1-2.5,0.1l0.2,1.9c0.7-0.1,1.5-0.1,2.3-0.1c11.1,0,20.2,9,20.2,20.2s-9,20.2-20.2,20.2
	c-0.8,0-1.5,0-2.2-0.1L19.5,44c0.8,0.1,1.6,0.1,2.5,0.1c12.2,0,22.1-9.9,22.1-22.1S34.1,0,21.9,0z M14.6,1.3
	c-1.6,0.6-3.1,1.3-4.5,2.1l1,1.6c1.3-0.8,2.6-1.5,4.1-2L14.6,1.3z M6.3,6.5C5.1,7.6,4.1,9,3.3,10.3l1.6,1c0.8-1.3,1.7-2.5,2.8-3.5
	L6.3,6.5z M30.7,11.9L19.8,28.3L12,21.4l-1.3,1.4l9.5,8.4L32.3,13L30.7,11.9z M1.1,14.8c-0.5,1.5-0.9,3.1-1.1,4.8l1.9,0.2
	c0.2-1.5,0.5-3,1-4.4L1.1,14.8z M1.9,24.3L0,24.6c0.2,1.7,0.6,3.3,1.1,4.8l1.8-0.6C2.4,27.3,2.1,25.9,1.9,24.3z M4.9,32.8l-1.6,1
	c0.9,1.4,1.9,2.7,3.1,3.9l1.4-1.4C6.6,35.3,5.7,34.1,4.9,32.8z M11.2,39.1l-1,1.6c1.4,0.9,2.9,1.6,4.5,2.1l0.6-1.8
	C13.9,40.6,12.5,39.9,11.2,39.1z"/>
</svg>
