<?xml version="1.0" encoding="utf-8"?>
<!-- Generator: Adobe Illustrator 22.1.0, SVG Export Plug-In . SVG Version: 6.00 Build 0)  -->
<svg version="1.1" id="Слой_1" xmlns="http://www.w3.org/2000/svg" xmlns:xlink="http://www.w3.org/1999/xlink" x="0px" y="0px"
	 viewBox="0 0 491.1 522.5" style="enable-background:new 0 0 491.1 522.5;" xml:space="preserve">
<path d="M244,0c-57.4,1.3-93.8,24.5-109.4,60.4c-14.9,34.2-11.8,77.3-1.1,122c-5.7,6.7-10.4,16.1-9.2,30.2v0.8
	c2.1,14.9,6.5,25.4,12.2,32.9c2.8,3.6,6.9,3.7,10.3,5.7c1.9,12.9,5.1,25.9,10,36.7c2.8,6.1,5.6,11.4,8.8,16.1
	c1.5,2.1,3.7,3.5,5.3,5.3v44c-3.9,9.4-13.2,17-27.9,24.5c-15.3,7.7-35.3,14.9-55.5,23.7c-20.2,8.8-40.6,19.8-57,36.7
	C14.2,456,2.5,479,0.8,509.5l-0.8,13h491.1l-0.8-13c-1.7-30.5-13.4-53.5-29.8-70.4c-16.4-16.9-37.1-27.9-57.4-36.7
	c-20.3-8.8-40.4-15.9-55.9-23.7c-14.9-7.5-24.1-15-28.3-24.5v-44.4c1.5-1.7,3.6-2.9,5-5c3.2-4.7,6.4-10,9.2-16.1
	c4.8-10.6,8-23.6,10-36.3c3.9-2,8.4-2.2,11.5-6.1c5.9-7.7,9.3-18.7,10.7-33.7c1.1-13-2.6-22.4-8.4-29.5c6.4-19.6,13.9-51,11.5-83
	c-1.3-17.6-6-35.1-16.4-49.7c-9.5-13.2-24.8-22.2-44-26.4C295,6.8,271.5,0,244.4,0L244,0z M244.4,24.5h0.4
	c24.4,0.1,40.1,7,45.1,15.7l3.1,5.4l6.1,0.8c16.8,2.3,26.1,8.8,32.9,18.4c6.8,9.5,10.7,22.8,11.8,37.5c2.3,29.4-6.2,63.9-11.8,79.6
	l-3.8,10.3l9.5,5c-0.1,0.3,3.9,4.4,3.5,13.4v0.4c-1.1,11.5-4.1,18-6.1,20.7c-2,2.7-3.1,2.3-2.7,2.3h-11.1l-1.1,11.1
	c-1.1,11-5,23.6-9.6,33.7c-2.3,5.1-4.4,9.5-6.5,12.6c-2.1,3.1-4.6,4.8-3.5,4.2l-6.1,3.4v58.5c0-0.1-2.2,5.3-11.1,10
	c-8.9,4.7-22.6,8.4-37.9,8.4c-15.4,0-29-3.5-37.9-8c-8.8-4.5-11.1-9.3-11.1-10.3c0-1.9-0.4-3.7-1.2-5.4v-53.1l-6.1-3.5
	c1.2,0.6-1.3-1.2-3.4-4.2c-2.1-3.1-4.6-7.6-6.9-12.6c-4.5-10.1-8.5-22.6-9.5-33.7l-0.8-11.1h-10.3c-0.4-0.2-1.6-0.8-2.7-2.3
	c-2.1-2.8-5.2-9.4-6.9-20.7v-0.4c-0.1-0.2,0-0.2,0-0.4c-0.2-9.3,5.5-14.4,4.6-13.8l6.9-5l-1.9-8.4c-11.3-44.6-13-85-1.2-112.5
	C169.1,43,193.2,25.7,244.4,24.5L244.4,24.5z M183.2,380.2c3.9,3.6,8.4,6.6,13.4,9.2c13.2,6.8,30.1,10.7,49,10.7
	c19,0,36.2-4.2,49.3-11.1c4.6-2.4,9-5.2,12.6-8.4c8,8.4,18.3,14.9,29.1,20.3c17.7,8.9,38,15.8,57,24.1c19,8.3,36.5,17.7,49.3,31
	c10.2,10.6,16.6,24.6,19.9,42.1H28.3c3.3-17.5,9.7-31.5,19.9-42.1c12.8-13.2,30.4-22.6,49.3-31c19-8.3,39-15.2,56.6-24.1
	C165,395.4,175.4,388.8,183.2,380.2L183.2,380.2z"/>
</svg>
