<?xml version="1.0" encoding="utf-8"?>
<!-- Generator: Adobe Illustrator 21.0.0, SVG Export Plug-In . SVG Version: 6.00 Build 0)  -->
<svg version="1.1" id="Слой_1" xmlns="http://www.w3.org/2000/svg" xmlns:xlink="http://www.w3.org/1999/xlink" x="0px" y="0px"
	 viewBox="0 0 14 14" style="enable-background:new 0 0 14 14;" xml:space="preserve">
<style type="text/css">
	.st0{fill:#FFFFFF;}
</style>
<path class="st0" d="M7,16.9c-2.1,0-4.1-0.7-5.8-1.9c-2.6-1.9-4.1-4.9-4.1-8c0-2.1,0.7-4.1,1.9-5.8c1.9-2.6,4.9-4.1,8-4.1
	c2.1,0,4.1,0.7,5.8,1.9c2.6,1.9,4.1,4.9,4.1,8c0,2.1-0.7,4.1-1.9,5.8l0,0C13.2,15.4,10.2,16.9,7,16.9z M6.9,6.9C6.9,7,6.9,7,6.9,6.9
	L7,7.1L7.1,7L6.9,6.9z"/>
</svg>
