<?xml version="1.0" encoding="utf-8"?>
<!-- Generator: Adobe Illustrator 21.0.0, SVG Export Plug-In . SVG Version: 6.00 Build 0)  -->
<svg version="1.1" id="Слой_1" xmlns="http://www.w3.org/2000/svg" xmlns:xlink="http://www.w3.org/1999/xlink" x="0px" y="0px"
	 viewBox="0 0 18 18" style="enable-background:new 0 0 18 18;" xml:space="preserve">
<path d="M8,5H12L13,0.8c0.1-0.5,0.6-0.9,1.2-0.8c0.5,0.1,0.9,0.6,0.8,1.2c0,0,0,0.1,0,0.1L14,5h3c0.6,0,1,0.4,1,1s-0.4,1-1,1h-3.5
	l-1,4H15c0.6,0,1,0.4,1,1s-0.4,1-1,1h-3L11,17.3c-0.1,0.5-0.7,0.9-1.2,0.7S8.9,17.3,9,16.8L10,13H6L5,17.3c-0.1,0.5-0.7,0.9-1.2,0.7
	S2.9,17.3,3,16.8L4,13H1c-0.6,0-1-0.4-1-1s0.4-1,1-1h3.5l1-4H3C2.4,7,2,6.6,2,6s0.4-1,1-1h3L7,0.8C7.1,0.3,7.7-0.1,8.2,0
	C8.8,0.1,9.1,0.7,9,1.2c0,0,0,0.1,0,0.1L8,5z M7.5,7l-1,4h3.9l1-4C11.5,7,7.5,7,7.5,7z"/>
</svg>
