<?xml version="1.0" encoding="UTF-8"?>
<svg width="12px" height="12px" viewBox="0 0 12 12" version="1.1" xmlns="http://www.w3.org/2000/svg" xmlns:xlink="http://www.w3.org/1999/xlink">
    <!-- Generator: Sketch 53.1 (72631) - https://sketchapp.com -->
    <title>loading</title>
    <desc>Created with Sketch.</desc>
    <g id="loading" stroke="none" stroke-width="1" fill="none" fill-rule="evenodd">
        <g fill="#FFFFFF" fill-rule="nonzero" id="Oval">
            <path d="M6,12 C5.58578644,12 5.25,11.6642136 5.25,11.25 C5.25,10.8357864 5.58578644,10.5 6,10.5 C8.48528137,10.5 10.5,8.48528137 10.5,6 C10.5,3.51471863 8.48528137,1.5 6,1.5 C3.51471863,1.5 1.5,3.51471863 1.5,6 C1.5,6.18197502 1.51076277,6.36244382 1.53209145,6.5408273 C1.58126724,6.95211141 1.28772044,7.32538791 0.876436331,7.37456369 C0.465152222,7.42373947 0.0918757286,7.13019267 0.0426999464,6.71890856 C0.0143091553,6.48146077 8.8817842e-16,6.24152672 8.8817842e-16,6 C6.50273486e-16,2.6862915 2.6862915,1.77635684e-15 6,1.77635684e-15 C9.3137085,1.53845191e-15 12,2.6862915 12,6 C12,9.3137085 9.3137085,12 6,12 Z" transform="translate(6.000000, 6.000000) rotate(-270.000000) translate(-6.000000, -6.000000) "></path>
        </g>
    </g>
</svg>