<?xml version="1.0" encoding="utf-8"?>
<!-- Generator: Adobe Illustrator 22.1.0, SVG Export Plug-In . SVG Version: 6.00 Build 0)  -->
<svg version="1.1" id="Слой_1" xmlns="http://www.w3.org/2000/svg" xmlns:xlink="http://www.w3.org/1999/xlink" x="0px" y="0px"
	 viewBox="0 0 514.1 514.1" style="enable-background:new 0 0 514.1 514.1;" xml:space="preserve">
<path d="M61.2,0C27.6,0,0,27.6,0,61.2v391.7c0,33.6,27.6,61.2,61.2,61.2h391.7c33.6,0,61.2-27.6,61.2-61.2V61.2
	c0-33.6-27.6-61.2-61.2-61.2H61.2z M61.2,24.5h391.7c20.3,0,36.7,16.5,36.7,36.7v391.7c0,20.3-16.5,36.7-36.7,36.7H61.2
	c-20.3,0-36.7-16.5-36.7-36.7V61.2C24.5,40.9,40.9,24.5,61.2,24.5z M244.8,110.2v134.6H110.2v24.5h134.6v134.6h24.5V269.3h134.6
	v-24.5H269.3V110.2H244.8z"/>
</svg>
