<?xml version="1.0" encoding="utf-8"?>
<!-- Generator: Adobe Illustrator 22.1.0, SVG Export Plug-In . SVG Version: 6.00 Build 0)  -->
<svg version="1.1" id="Слой_1" xmlns="http://www.w3.org/2000/svg" xmlns:xlink="http://www.w3.org/1999/xlink" x="0px" y="0px"
	 viewBox="0 0 88.3 88.3" style="enable-background:new 0 0 88.3 88.3;" xml:space="preserve">
<path d="M44.2,0C19.8,0,0,19.8,0,44.2s19.8,44.2,44.2,44.2s44.2-19.8,44.2-44.2S68.5,0,44.2,0z M44.2,49.9c-0.9,0-1.7-0.2-2.5-0.6
	L30.2,60.9c-0.4,0.4-0.9,0.6-1.4,0.6c-0.5,0-1-0.2-1.4-0.6c-0.8-0.8-0.8-2,0-2.7L39,46.6c-0.4-0.8-0.6-1.6-0.6-2.5
	c0-2.5,1.6-4.6,3.8-5.4V11.5c0-1.1,0.9-1.9,1.9-1.9s1.9,0.9,1.9,1.9v27.2c2.2,0.8,3.8,2.9,3.8,5.4C49.9,47.3,47.3,49.9,44.2,49.9z"
	/>
</svg>
