<?xml version="1.0" encoding="utf-8"?>
<!-- Generator: Adobe Illustrator 22.1.0, SVG Export Plug-In . SVG Version: 6.00 Build 0)  -->
<svg version="1.1" id="Слой_1" xmlns="http://www.w3.org/2000/svg" xmlns:xlink="http://www.w3.org/1999/xlink" x="0px" y="0px"
	 viewBox="0 0 514.1 514.1" style="enable-background:new 0 0 514.1 514.1;" xml:space="preserve">
<path d="M455.2,0H58.9C26.4,0,0,26.4,0,58.9v396.3c0,32.5,26.4,58.9,58.9,58.9h396.3c32.5,0,58.9-26.4,58.9-58.9V58.9
	C514.1,26.4,487.7,0,455.2,0z M220.3,391.7c0,6.8-5.4,12.2-12.2,12.2c-6.8,0-12.2-5.4-12.2-12.2V122.4c0-6.8,5.4-12.2,12.2-12.2
	c6.8,0,12.2,5.4,12.2,12.2V391.7z M318.2,391.7c0,6.8-5.4,12.2-12.2,12.2s-12.2-5.4-12.2-12.2V122.4c0-6.8,5.4-12.2,12.2-12.2
	s12.2,5.4,12.2,12.2V391.7z"/>
</svg>
