<?xml version="1.0" encoding="utf-8"?>
<!-- Generator: Adobe Illustrator 22.1.0, SVG Export Plug-In . SVG Version: 6.00 Build 0)  -->
<svg version="1.1" id="Слой_1" xmlns="http://www.w3.org/2000/svg" xmlns:xlink="http://www.w3.org/1999/xlink" x="0px" y="0px"
	 viewBox="0 0 48 48" style="enable-background:new 0 0 48 48;" xml:space="preserve">
<path d="M24,1.9c-2.4,0-4.5,0.7-6.1,1.9c-1.3,1-2.2,2.3-2.5,3.9H2.9C1.3,7.7,0,9,0,10.6v16.1c0,0.1,0,0.1,0,0.2v16.3
	c0,1.6,1.3,2.9,2.9,2.9h42.2c1.6,0,2.9-1.3,2.9-2.9V26.8c0,0,0-0.1,0-0.1V10.6c0-1.6-1.3-2.9-2.9-2.9H32.5c-0.3-1.5-1.2-2.9-2.5-3.9
	C28.5,2.6,26.4,1.9,24,1.9z M24,3.8c2,0,3.7,0.6,4.9,1.5c0.9,0.7,1.5,1.5,1.7,2.3H17.4c0.2-0.9,0.8-1.7,1.7-2.3
	C20.3,4.4,22,3.8,24,3.8z M2.9,9.6h42.2c0.5,0,1,0.4,1,1v16.1c0,0,0,0.1,0,0.1v0.1c0,0.5-0.4,1-1,1H28.8c0-1.6-1.3-2.9-2.9-2.9h-3.8
	c-1.6,0-2.9,1.3-2.9,2.9H2.9c-0.5,0-1-0.4-1-1c0-0.1,0-0.1,0-0.2V10.6C1.9,10,2.3,9.6,2.9,9.6z M22.1,26.9h3.8c0.5,0,1,0.4,1,1v0.8
	c0,0,0,0.1,0,0.1v0.1c0,0.1,0,0.1,0,0.2v0.8c0,0.5-0.4,1-1,1h-3.8c-0.5,0-1-0.4-1-1V29c0-0.1,0-0.3,0-0.4v-0.8
	C21.1,27.3,21.5,26.9,22.1,26.9z M1.9,29.6c0.3,0.1,0.6,0.2,1,0.2h16.3c0,1.6,1.3,2.9,2.9,2.9h3.8c1.6,0,2.9-1.3,2.9-2.9h16.3
	c0.3,0,0.7-0.1,1-0.2v13.6c0,0.5-0.4,1-1,1H2.9c-0.5,0-1-0.4-1-1V29.6z"/>
</svg>
