<?xml version="1.0" encoding="utf-8"?>
<!-- Generator: Adobe Illustrator 22.1.0, SVG Export Plug-In . SVG Version: 6.00 Build 0)  -->
<svg version="1.1" id="Слой_1" xmlns="http://www.w3.org/2000/svg" xmlns:xlink="http://www.w3.org/1999/xlink" x="0px" y="0px"
	 viewBox="0 0 42 36" style="enable-background:new 0 0 42 36;" xml:space="preserve">
<path d="M5.3,0C2.4,0,0,2.4,0,5.3v25.5C0,33.6,2.4,36,5.3,36h31.5c2.9,0,5.3-2.4,5.3-5.3V5.3C42,2.4,39.6,0,36.8,0H5.3z M5.3,1.5
	h31.5c2.1,0,3.8,1.7,3.8,3.8v5.3h-10c-1,0-1.9,0.4-2.7,1.1l-1.2,1.2c-0.2,0.2-0.4,0.4-0.5,0.7h-7.3c-0.4,0-0.8,0.3-0.8,0.8
	s0.3,0.8,0.8,0.8h6.8c0,0.2,0,0.3,0,0.5V22c0,0.2,0,0.3,0,0.5h-9.1c0-0.2,0-0.3,0-0.5v-6.5c0-1-0.4-1.9-1.1-2.7l-1.2-1.2
	c-0.7-0.7-1.6-1.1-2.7-1.1h-10V5.3C1.5,3.2,3.2,1.5,5.3,1.5z M4.5,4.5c-0.4,0-0.8,0.3-0.8,0.8v1.5c0,0.4,0.3,0.8,0.8,0.8
	c0.4,0,0.8-0.3,0.8-0.8V5.3C5.3,4.8,4.9,4.5,4.5,4.5z M8.3,4.5c-0.4,0-0.8,0.3-0.8,0.8v1.5c0,0.4,0.3,0.8,0.8,0.8
	C8.7,7.5,9,7.2,9,6.8V5.3C9,4.8,8.7,4.5,8.3,4.5z M12,4.5c-0.4,0-0.8,0.3-0.8,0.8v1.5c0,0.4,0.3,0.8,0.8,0.8s0.8-0.3,0.8-0.8V5.3
	C12.8,4.8,12.4,4.5,12,4.5z M15.8,4.5c-0.4,0-0.8,0.3-0.8,0.8v1.5c0,0.4,0.3,0.8,0.8,0.8s0.8-0.3,0.8-0.8V5.3
	C16.5,4.8,16.2,4.5,15.8,4.5z M19.5,4.5c-0.4,0-0.8,0.3-0.8,0.8v1.5c0,0.4,0.3,0.8,0.8,0.8s0.8-0.3,0.8-0.8V5.3
	C20.3,4.8,19.9,4.5,19.5,4.5z M23.3,4.5c-0.4,0-0.8,0.3-0.8,0.8v1.5c0,0.4,0.3,0.8,0.8,0.8S24,7.2,24,6.8V5.3
	C24,4.8,23.7,4.5,23.3,4.5z M27,4.5c-0.4,0-0.8,0.3-0.8,0.8v1.5c0,0.4,0.3,0.8,0.8,0.8s0.8-0.3,0.8-0.8V5.3
	C27.8,4.8,27.4,4.5,27,4.5z M30.8,4.5c-0.4,0-0.8,0.3-0.8,0.8v1.5c0,0.4,0.3,0.8,0.8,0.8s0.8-0.3,0.8-0.8V5.3
	C31.5,4.8,31.2,4.5,30.8,4.5z M34.5,4.5c-0.4,0-0.8,0.3-0.8,0.8v1.5c0,0.4,0.3,0.8,0.8,0.8s0.8-0.3,0.8-0.8V5.3
	C35.3,4.8,34.9,4.5,34.5,4.5z M38.3,4.5c-0.4,0-0.8,0.3-0.8,0.8v1.5c0,0.4,0.3,0.8,0.8,0.8S39,7.2,39,6.8V5.3
	C39,4.8,38.7,4.5,38.3,4.5z M1.5,12h10c0.6,0,1.2,0.2,1.6,0.7l1.2,1.2c0.4,0.4,0.7,1,0.7,1.6V22c0,0.6-0.2,1.2-0.7,1.6l-1.2,1.2
	c-0.4,0.4-1,0.7-1.6,0.7h-10v-6h9.8c0.4,0,0.8-0.3,0.8-0.8S11.7,18,11.3,18H1.5V12z M30.5,12h10v6h-5.3c-0.4,0-0.8,0.3-0.8,0.8
	s0.3,0.8,0.8,0.8h5.3v6h-10c-0.6,0-1.2-0.2-1.6-0.7l-1.2-1.2c-0.4-0.4-0.7-1-0.7-1.6v-6.5c0-0.6,0.2-1.2,0.7-1.6l1.2-1.2
	C29.3,12.2,29.9,12,30.5,12z M29.3,18c-0.4,0-0.8,0.3-0.8,0.8s0.3,0.8,0.8,0.8h3c0.4,0,0.8-0.3,0.8-0.8S32.7,18,32.3,18H29.3z
	 M15.9,24H21v2.5c0,0.6-0.2,1.2-0.7,1.6l-6.4,6.4H5.3c-2.1,0-3.8-1.7-3.8-3.8V27h10c1,0,1.9-0.4,2.7-1.1l1.2-1.2
	C15.6,24.5,15.8,24.2,15.9,24z M22.5,24h3.6c0.1,0.2,0.3,0.5,0.5,0.7l1.2,1.2c0.7,0.7,1.6,1.1,2.7,1.1h10v3.8c0,2.1-1.7,3.8-3.8,3.8
	h-7.2l-5-5c-0.3-0.3-0.8-0.3-1.1,0s-0.3,0.8,0,1.1l4,4H16.1l5.3-5.3c0.7-0.7,1.1-1.6,1.1-2.7V24z"/>
</svg>
