<?xml version="1.0" encoding="utf-8"?>
<!-- Generator: Adobe Illustrator 22.1.0, SVG Export Plug-In . SVG Version: 6.00 Build 0)  -->
<svg version="1.1" id="Слой_1" xmlns="http://www.w3.org/2000/svg" xmlns:xlink="http://www.w3.org/1999/xlink" x="0px" y="0px"
	 viewBox="0 0 42.2 42.2" style="enable-background:new 0 0 42.2 42.2;" xml:space="preserve">
<g id="surface1">
	<path d="M2.9,0C1.3,0,0,1.3,0,2.9v36.5c0,1.6,1.3,2.9,2.9,2.9h36.5c1.6,0,2.9-1.3,2.9-2.9V2.9c0-1.6-1.3-2.9-2.9-2.9H2.9z M2.9,1.9
		h36.5c0.5,0,1,0.4,1,1v36.5c0,0.5-0.4,1-1,1H2.9c-0.5,0-1-0.4-1-1V2.9C1.9,2.3,2.3,1.9,2.9,1.9z M8.6,20.2v1.9h25v-1.9H8.6z"/>
</g>
</svg>
