<?xml version="1.0" encoding="utf-8"?>
<!-- Generator: Adobe Illustrator 22.1.0, SVG Export Plug-In . SVG Version: 6.00 Build 0)  -->
<svg version="1.1" id="Слой_1" xmlns="http://www.w3.org/2000/svg" xmlns:xlink="http://www.w3.org/1999/xlink" x="0px" y="0px"
	 viewBox="0 0 538.8 538.8" style="enable-background:new 0 0 538.8 538.8;" xml:space="preserve">
<path d="M108.2,0.1c-9.4-0.8-19.9,2-29.5,8.8c-8.5,5.9-26.9,20.5-44,37c-8.6,8.2-16.7,16.8-23,25.2C5.2,79.5-0.3,87.2,0,98.4
	c0.3,10,1.3,39.7,22.7,85.3c21.4,45.5,62.8,107.9,143.7,188.8c80.9,80.9,143.3,122.4,188.7,143.7c45.5,21.4,75.2,22.4,85.3,22.7
	c11.1,0.3,18.8-5.2,27.3-11.6c8.4-6.4,17-14.5,25.2-23c16.4-17.2,31-35.5,36.9-44c13.5-19.3,11.3-42-3.8-52.6
	c-9.5-6.6-96.5-64.6-109.6-72.6c-13.3-8.1-28.6-4.5-42.3,2.8c-10.8,5.7-39.9,22.4-48.2,27.2c-6.3-4-30-19.8-81.2-70.9
	c-51.2-51.1-67-74.9-70.9-81.2c4.8-8.3,21.4-37.3,27.2-48.2c7.2-13.6,11.2-29.1,2.6-42.5c-3.6-5.7-19.9-30.5-36.3-55.4
	c-16.5-24.9-32.1-48.5-36.2-54.2v0C125.9,5.2,117.6,0.9,108.2,0.1L108.2,0.1z M269.3,24.8v24.5c121.5,0,220.3,98.8,220.3,220.3h24.5
	C514.1,134.6,404.3,24.8,269.3,24.8z M106,25.1c3.4,0.4,5.4,1.8,5.4,1.8c2,2.7,19.1,28.4,35.6,53.3c16.5,24.9,33.2,50.5,36.1,55.1
	c0.5,0.7,1.2,8.9-3.6,17.9v0c-5.4,10.3-30.6,54.3-30.6,54.3l-3.5,6.2l3.6,6.1c0,0,18.8,31.7,78.6,91.5
	c59.8,59.8,91.5,78.6,91.5,78.6l6.1,3.6l6.2-3.5c0,0,43.9-25.2,54.3-30.6c9-4.7,17.2-4.1,18.1-3.5c8.5,5.2,102.5,67.7,108.3,71.8
	c0.2,0.1,5.3,7.9-2.2,18.5h0c-4.5,6.5-19.2,25.1-34.6,41.1c-7.7,8-15.6,15.4-22.3,20.4c-6.7,5-12.7,6.6-11.7,6.7
	c-10.4-0.3-33.4-0.6-75.6-20.4c-42.2-19.8-102.4-59.4-181.9-138.9c-79.4-79.4-119-139.6-138.8-181.9C25.1,131,24.8,108,24.5,97.6
	c0,0.9,1.6-5.1,6.6-11.8c5-6.7,12.4-14.6,20.4-22.3c16-15.3,34.7-30.1,41.1-34.6v0C98,25.2,102.6,24.8,106,25.1L106,25.1z
	 M269.3,92.6v24.5c84.1,0,152.5,68.4,152.5,152.5h24.5C446.2,172,366.9,92.6,269.3,92.6z M269.3,159.4v24.5
	c47.2,0,85.7,38.4,85.7,85.7h24.5C379.5,208.8,330,159.4,269.3,159.4z"/>
</svg>
