<?xml version="1.0" encoding="utf-8"?>
<!-- Generator: Adobe Illustrator 22.1.0, SVG Export Plug-In . SVG Version: 6.00 Build 0)  -->
<svg version="1.1" id="Слой_1" xmlns="http://www.w3.org/2000/svg" xmlns:xlink="http://www.w3.org/1999/xlink" x="0px" y="0px"
	 viewBox="0 0 465.1 587.5" style="enable-background:new 0 0 465.1 587.5;" xml:space="preserve">
<path d="M232.6,0c-22.6,0-41.1,15.8-46.7,36.7H36.7C16.6,36.7,0,53.3,0,73.4v477.4c0,20.1,16.6,36.7,36.7,36.7h391.7
	c20.1,0,36.7-16.6,36.7-36.7V73.4c0-20.1-16.6-36.7-36.7-36.7H279.2C273.7,15.8,255.2,0,232.6,0z M232.6,24.5
	c13.7,0,24.5,10.8,24.5,24.5c0,6.7,5.5,12.2,12.2,12.2H306v24.5H159.1V61.2h36.7c6.7,0,12.2-5.5,12.2-12.2
	C208.1,35.3,218.9,24.5,232.6,24.5z M36.7,61.2h97.9v36.7c0,6.7,5.5,12.2,12.2,12.2h171.4c6.7,0,12.2-5.5,12.2-12.2V61.2h97.9
	c6.9,0,12.2,5.3,12.2,12.2v477.4c0,6.9-5.3,12.2-12.2,12.2H36.7c-6.9,0-12.2-5.3-12.2-12.2V73.4C24.5,66.5,29.8,61.2,36.7,61.2z
	 M367.2,207.3c-0.7,0.1-1.3,0.2-1.9,0.4c-0.2,0.1-0.5,0.2-0.8,0.4c-3.1,0.7-5.9,2.6-7.6,5.4l-40.5,60.8l-26-26
	c-2.5-2.7-6.2-4.1-10-3.8c-0.5,0.1-1.1,0.2-1.5,0.4c-4.6,0.8-8.3,4.2-9.5,8.6c-1.3,4.5,0,9.3,3.4,12.4l35.2,35.2
	c0.2,0.3,0.5,0.5,0.8,0.8l0.7,0.8c0.2,0.1,0.2,0.2,0.4,0.4l0.4,0.4c0.1,0.2,0.2,0.2,0.4,0.4c0.5,0.3,1,0.5,1.5,0.8
	c0.2,0.1,0.5,0.3,0.8,0.4c0.2,0.2,0.5,0.3,0.8,0.4h0.4c0.2,0.1,0.5,0.3,0.8,0.4h0.4c0.2,0.1,0.5,0.3,0.8,0.4h1.5c0.8,0,1.5,0,2.3,0
	h0.4c0.9-0.1,1.8-0.4,2.7-0.8c0.2-0.1,0.5-0.2,0.8-0.4c0.4-0.1,0.8-0.2,1.1-0.4c0.3-0.2,0.5-0.5,0.8-0.8c0.2-0.1,0.5-0.2,0.8-0.4
	c0.4-0.3,0.8-0.7,1.2-1.2c0.3-0.4,0.5-0.8,0.8-1.1l0.4-0.4l0.4-0.4c0.1-0.4,0.3-0.8,0.4-1.2l48.2-71.9c3.1-3.8,3.6-9,1.3-13.3
	C376.6,209.5,372,207,367.2,207.3L367.2,207.3z M94.5,244.8c-6.8,1-11.5,7.2-10.5,14c1,6.7,7.2,11.5,14,10.5h122.4
	c4.4,0,8.5-2.3,10.8-6.1c2.2-3.8,2.2-8.5,0-12.3c-2.3-3.8-6.4-6.1-10.8-6.1H94.5z M367.2,366.4c-0.7,0.1-1.3,0.2-1.9,0.4
	c-0.2,0.1-0.5,0.2-0.8,0.4c-3.1,0.7-5.9,2.6-7.6,5.4l-40.5,60.8l-26-26c-2.5-2.7-6.2-4.1-10-3.8c-0.5,0.1-1.1,0.2-1.5,0.4
	c-4.6,0.8-8.3,4.2-9.5,8.6c-1.3,4.5,0,9.3,3.4,12.4l35.2,35.2c0.2,0.3,0.5,0.5,0.8,0.8l0.7,0.8c0.2,0.1,0.2,0.2,0.4,0.4l0.4,0.4
	c0.1,0.2,0.2,0.2,0.4,0.4c0.5,0.3,1,0.5,1.5,0.8c0.2,0.1,0.5,0.3,0.8,0.4c0.2,0.2,0.5,0.3,0.8,0.4h0.4c0.2,0.1,0.5,0.3,0.8,0.4h0.4
	c0.2,0.1,0.5,0.3,0.8,0.4h1.5c0.8,0,1.5,0,2.3,0h0.4c0.9-0.1,1.8-0.4,2.7-0.8c0.2-0.1,0.5-0.2,0.8-0.4c0.4-0.1,0.8-0.2,1.1-0.4
	c0.3-0.2,0.5-0.5,0.8-0.8c0.2-0.1,0.5-0.2,0.8-0.4c0.4-0.3,0.8-0.7,1.2-1.2c0.3-0.4,0.5-0.8,0.8-1.2l0.4-0.4l0.4-0.4
	c0.1-0.4,0.3-0.8,0.4-1.2l48.2-71.9c3.1-3.8,3.6-9,1.3-13.3C376.6,368.7,372,366.1,367.2,366.4L367.2,366.4z M94.5,403.9
	c-6.8,1-11.5,7.2-10.5,14c1,6.7,7.2,11.5,14,10.5h122.4c4.4,0,8.5-2.3,10.8-6.1c2.2-3.8,2.2-8.5,0-12.3c-2.3-3.8-6.4-6.1-10.8-6.1
	L94.5,403.9L94.5,403.9z"/>
</svg>
