<?xml version="1.0" encoding="utf-8"?>
<!-- Generator: Adobe Illustrator 22.1.0, SVG Export Plug-In . SVG Version: 6.00 Build 0)  -->
<svg version="1.1" id="Слой_1" xmlns="http://www.w3.org/2000/svg" xmlns:xlink="http://www.w3.org/1999/xlink" x="0px" y="0px"
	 viewBox="0 0 41 41" style="enable-background:new 0 0 41 41;" xml:space="preserve">
<path d="M20.5,0L15,5.4c-0.3,0.2-0.4,0.6-0.3,0.9c0.1,0.3,0.3,0.6,0.7,0.7c0.3,0.1,0.7,0,0.9-0.3l3.2-3.1v10.1
	c0,0.3,0.2,0.7,0.5,0.8c0.3,0.2,0.7,0.2,1,0c0.3-0.2,0.5-0.5,0.5-0.8V3.7l3.2,3.1C24.9,7,25.2,7.1,25.6,7c0.3-0.1,0.6-0.4,0.7-0.7
	c0.1-0.3,0-0.7-0.3-0.9L20.5,0z M6.1,14.8c-0.2,0-0.5,0.1-0.7,0.3L0,20.5L5.4,26c0.2,0.3,0.6,0.4,0.9,0.3c0.3-0.1,0.6-0.3,0.7-0.7
	c0.1-0.3,0-0.7-0.3-0.9l-3.1-3.2h10.1c0.3,0,0.7-0.2,0.8-0.5c0.2-0.3,0.2-0.7,0-1c-0.2-0.3-0.5-0.5-0.8-0.5H3.6l3.1-3.2
	c0.3-0.3,0.4-0.7,0.2-1.1C6.8,15,6.5,14.7,6.1,14.8z M34.9,14.8c-0.4,0-0.7,0.2-0.9,0.6s-0.1,0.8,0.2,1l3.1,3.2H27.3
	c-0.3,0-0.7,0.2-0.8,0.5c-0.2,0.3-0.2,0.7,0,1c0.2,0.3,0.5,0.5,0.8,0.5h10.1l-3.1,3.2c-0.2,0.2-0.3,0.6-0.3,0.9
	c0.1,0.3,0.4,0.6,0.7,0.7c0.3,0.1,0.7,0,0.9-0.3l5.4-5.5L35.6,15C35.4,14.9,35.2,14.8,34.9,14.8z M20.5,26.3c-0.5,0-1,0.4-0.9,1
	v10.1l-3.2-3.1C16.2,34.1,16,34,15.7,34c-0.4,0-0.7,0.2-0.9,0.6c-0.1,0.4-0.1,0.8,0.2,1l5.5,5.4l5.5-5.4c0.3-0.2,0.4-0.6,0.3-0.9
	c-0.1-0.3-0.3-0.6-0.7-0.7c-0.3-0.1-0.7,0-0.9,0.3l-3.2,3.1V27.3c0-0.3-0.1-0.5-0.3-0.7C21,26.4,20.8,26.3,20.5,26.3z"/>
</svg>
