<?xml version="1.0" encoding="utf-8"?>
<!-- Generator: Adobe Illustrator 22.1.0, SVG Export Plug-In . SVG Version: 6.00 Build 0)  -->
<svg version="1.1" id="Слой_1" xmlns="http://www.w3.org/2000/svg" xmlns:xlink="http://www.w3.org/1999/xlink" x="0px" y="0px"
	 viewBox="0 0 30 37.2" style="enable-background:new 0 0 30 37.2;" xml:space="preserve">
<path d="M2.4,0C1.1,0,0,1.1,0,2.4v5.4c0,0.7,0.3,1.4,0.9,1.8C0.3,10,0,10.7,0,11.4v5.4c0,0.7,0.3,1.4,0.9,1.8C0.3,19,0,19.7,0,20.4
	v5.4c0,0.7,0.3,1.4,0.9,1.8C0.3,28,0,28.7,0,29.4v5.4c0,1.3,1.1,2.4,2.4,2.4h25.2c1.3,0,2.4-1.1,2.4-2.4v-5.4c0-0.7-0.3-1.4-0.9-1.8
	c0.5-0.4,0.9-1.1,0.9-1.8v-5.4c0-0.7-0.3-1.4-0.9-1.8c0.5-0.4,0.9-1.1,0.9-1.8v-5.4c0-0.7-0.3-1.4-0.9-1.8C29.7,9.2,30,8.5,30,7.8
	V2.4C30,1.1,28.9,0,27.6,0H2.4z M2.4,1.2h25.2c0.7,0,1.2,0.5,1.2,1.2v5.4c0,0.7-0.5,1.2-1.2,1.2v1.2c0.7,0,1.2,0.5,1.2,1.2v5.4
	c0,0.7-0.5,1.2-1.2,1.2v1.2c0.7,0,1.2,0.5,1.2,1.2v5.4c0,0.7-0.5,1.2-1.2,1.2v1.2c0.7,0,1.2,0.5,1.2,1.2v5.4c0,0.7-0.5,1.2-1.2,1.2
	H2.4c-0.7,0-1.2-0.5-1.2-1.2v-5.4c0-0.7,0.5-1.2,1.2-1.2V27c-0.7,0-1.2-0.5-1.2-1.2v-5.4c0-0.7,0.5-1.2,1.2-1.2V18
	c-0.7,0-1.2-0.5-1.2-1.2v-5.4c0-0.7,0.5-1.2,1.2-1.2V9C1.7,9,1.2,8.5,1.2,7.8V2.4C1.2,1.7,1.7,1.2,2.4,1.2z M18,4.2v1.2h3.6V4.2H18z
	 M4.2,9C3.9,9,3.6,9.3,3.6,9.6s0.3,0.6,0.6,0.6s0.6-0.3,0.6-0.6S4.5,9,4.2,9z M6.6,9C6.3,9,6,9.3,6,9.6s0.3,0.6,0.6,0.6
	s0.6-0.3,0.6-0.6S6.9,9,6.6,9z M9,9C8.7,9,8.4,9.3,8.4,9.6s0.3,0.6,0.6,0.6c0.3,0,0.6-0.3,0.6-0.6S9.3,9,9,9z M11.4,9
	c-0.3,0-0.6,0.3-0.6,0.6s0.3,0.6,0.6,0.6c0.3,0,0.6-0.3,0.6-0.6S11.7,9,11.4,9z M13.8,9c-0.3,0-0.6,0.3-0.6,0.6s0.3,0.6,0.6,0.6
	c0.3,0,0.6-0.3,0.6-0.6S14.1,9,13.8,9z M16.2,9c-0.3,0-0.6,0.3-0.6,0.6s0.3,0.6,0.6,0.6s0.6-0.3,0.6-0.6S16.5,9,16.2,9z M18.6,9
	C18.3,9,18,9.3,18,9.6s0.3,0.6,0.6,0.6s0.6-0.3,0.6-0.6S18.9,9,18.6,9z M21,9c-0.3,0-0.6,0.3-0.6,0.6s0.3,0.6,0.6,0.6
	c0.3,0,0.6-0.3,0.6-0.6S21.3,9,21,9z M23.4,9c-0.3,0-0.6,0.3-0.6,0.6s0.3,0.6,0.6,0.6c0.3,0,0.6-0.3,0.6-0.6S23.7,9,23.4,9z M25.8,9
	c-0.3,0-0.6,0.3-0.6,0.6s0.3,0.6,0.6,0.6s0.6-0.3,0.6-0.6S26.1,9,25.8,9z M18,13.2v1.2h3.6v-1.2H18z M4.2,18c-0.3,0-0.6,0.3-0.6,0.6
	s0.3,0.6,0.6,0.6s0.6-0.3,0.6-0.6S4.5,18,4.2,18z M6.6,18C6.3,18,6,18.3,6,18.6s0.3,0.6,0.6,0.6s0.6-0.3,0.6-0.6S6.9,18,6.6,18z
	 M9,18c-0.3,0-0.6,0.3-0.6,0.6s0.3,0.6,0.6,0.6c0.3,0,0.6-0.3,0.6-0.6S9.3,18,9,18z M11.4,18c-0.3,0-0.6,0.3-0.6,0.6
	s0.3,0.6,0.6,0.6c0.3,0,0.6-0.3,0.6-0.6S11.7,18,11.4,18z M13.8,18c-0.3,0-0.6,0.3-0.6,0.6s0.3,0.6,0.6,0.6c0.3,0,0.6-0.3,0.6-0.6
	S14.1,18,13.8,18z M16.2,18c-0.3,0-0.6,0.3-0.6,0.6s0.3,0.6,0.6,0.6s0.6-0.3,0.6-0.6S16.5,18,16.2,18z M18.6,18
	c-0.3,0-0.6,0.3-0.6,0.6s0.3,0.6,0.6,0.6s0.6-0.3,0.6-0.6S18.9,18,18.6,18z M21,18c-0.3,0-0.6,0.3-0.6,0.6s0.3,0.6,0.6,0.6
	c0.3,0,0.6-0.3,0.6-0.6S21.3,18,21,18z M23.4,18c-0.3,0-0.6,0.3-0.6,0.6s0.3,0.6,0.6,0.6c0.3,0,0.6-0.3,0.6-0.6S23.7,18,23.4,18z
	 M25.8,18c-0.3,0-0.6,0.3-0.6,0.6s0.3,0.6,0.6,0.6s0.6-0.3,0.6-0.6S26.1,18,25.8,18z M18,22.2v1.2h3.6v-1.2H18z M4.2,27
	c-0.3,0-0.6,0.3-0.6,0.6c0,0.3,0.3,0.6,0.6,0.6s0.6-0.3,0.6-0.6C4.8,27.3,4.5,27,4.2,27z M6.6,27C6.3,27,6,27.3,6,27.6
	c0,0.3,0.3,0.6,0.6,0.6s0.6-0.3,0.6-0.6C7.2,27.3,6.9,27,6.6,27z M9,27c-0.3,0-0.6,0.3-0.6,0.6c0,0.3,0.3,0.6,0.6,0.6
	c0.3,0,0.6-0.3,0.6-0.6C9.6,27.3,9.3,27,9,27z M11.4,27c-0.3,0-0.6,0.3-0.6,0.6c0,0.3,0.3,0.6,0.6,0.6c0.3,0,0.6-0.3,0.6-0.6
	C12,27.3,11.7,27,11.4,27z M13.8,27c-0.3,0-0.6,0.3-0.6,0.6c0,0.3,0.3,0.6,0.6,0.6c0.3,0,0.6-0.3,0.6-0.6C14.4,27.3,14.1,27,13.8,27
	z M16.2,27c-0.3,0-0.6,0.3-0.6,0.6c0,0.3,0.3,0.6,0.6,0.6s0.6-0.3,0.6-0.6C16.8,27.3,16.5,27,16.2,27z M18.6,27
	c-0.3,0-0.6,0.3-0.6,0.6c0,0.3,0.3,0.6,0.6,0.6s0.6-0.3,0.6-0.6C19.2,27.3,18.9,27,18.6,27z M21,27c-0.3,0-0.6,0.3-0.6,0.6
	c0,0.3,0.3,0.6,0.6,0.6c0.3,0,0.6-0.3,0.6-0.6C21.6,27.3,21.3,27,21,27z M23.4,27c-0.3,0-0.6,0.3-0.6,0.6c0,0.3,0.3,0.6,0.6,0.6
	c0.3,0,0.6-0.3,0.6-0.6C24,27.3,23.7,27,23.4,27z M25.8,27c-0.3,0-0.6,0.3-0.6,0.6c0,0.3,0.3,0.6,0.6,0.6s0.6-0.3,0.6-0.6
	C26.4,27.3,26.1,27,25.8,27z M18,31.2v1.2h3.6v-1.2H18z"/>
</svg>
