<?xml version="1.0" encoding="utf-8"?>
<!-- Generator: Adobe Illustrator 22.1.0, SVG Export Plug-In . SVG Version: 6.00 Build 0)  -->
<svg version="1.1" id="Слой_1" xmlns="http://www.w3.org/2000/svg" xmlns:xlink="http://www.w3.org/1999/xlink" x="0px" y="0px"
	 viewBox="0 0 36.1 36.2" style="enable-background:new 0 0 36.1 36.2;" xml:space="preserve">
<path d="M21.6,0L0,4.1v28.1l21.6,4.1v-4.3H36V4.3H21.6V0z M20.4,1.4v33.4L1.2,31.2V5.1L20.4,1.4z M18.6,3.1c-0.3,0-0.6,0.3-0.6,0.6
	s0.3,0.6,0.6,0.6s0.6-0.3,0.6-0.6S18.9,3.1,18.6,3.1z M18.6,5.5c-0.3,0-0.6,0.3-0.6,0.6s0.3,0.6,0.6,0.6s0.6-0.3,0.6-0.6
	S18.9,5.5,18.6,5.5z M21.6,5.5h13.2v25.2H21.6v-4.8H24v-1.2h-2.4v-3.6H24v-1.2h-2.4v-3.6H24v-1.2h-2.4v-3.6H24v-1.2h-2.4V5.5z
	 M18.6,7.9c-0.3,0-0.6,0.3-0.6,0.6c0,0.3,0.3,0.6,0.6,0.6s0.6-0.3,0.6-0.6C19.2,8.2,18.9,7.9,18.6,7.9z M18.6,10.3
	c-0.3,0-0.6,0.3-0.6,0.6s0.3,0.6,0.6,0.6s0.6-0.3,0.6-0.6S18.9,10.3,18.6,10.3z M25.2,10.3v1.2h6.6v-1.2H25.2z M5.1,12.7l3.2,5.4
	l-3.5,5.4h2.9l1.9-3.5c0.1-0.3,0.2-0.6,0.3-0.8h0c0.1,0.4,0.1,0.6,0.2,0.7l1.9,3.5h2.9l-3.3-5.5l3.3-5.4H12l-1.7,3.2
	c-0.2,0.4-0.3,0.7-0.3,0.9h0c-0.1-0.4-0.2-0.7-0.3-0.9L8,12.7H5.1z M18.6,12.7c-0.3,0-0.6,0.3-0.6,0.6c0,0.3,0.3,0.6,0.6,0.6
	s0.6-0.3,0.6-0.6C19.2,13,18.9,12.7,18.6,12.7z M18.6,15.1c-0.3,0-0.6,0.3-0.6,0.6c0,0.3,0.3,0.6,0.6,0.6s0.6-0.3,0.6-0.6
	C19.2,15.4,18.9,15.1,18.6,15.1z M25.2,15.1v1.2h6.6v-1.2H25.2z M18.6,17.5c-0.3,0-0.6,0.3-0.6,0.6s0.3,0.6,0.6,0.6s0.6-0.3,0.6-0.6
	S18.9,17.5,18.6,17.5z M18.6,19.9c-0.3,0-0.6,0.3-0.6,0.6s0.3,0.6,0.6,0.6s0.6-0.3,0.6-0.6S18.9,19.9,18.6,19.9z M25.2,19.9v1.2h6.6
	v-1.2H25.2z M18.6,22.3c-0.3,0-0.6,0.3-0.6,0.6s0.3,0.6,0.6,0.6s0.6-0.3,0.6-0.6S18.9,22.3,18.6,22.3z M18.6,24.7
	c-0.3,0-0.6,0.3-0.6,0.6c0,0.3,0.3,0.6,0.6,0.6s0.6-0.3,0.6-0.6C19.2,25,18.9,24.7,18.6,24.7z M25.2,24.7v1.2h6.6v-1.2H25.2z
	 M18.6,27.1c-0.3,0-0.6,0.3-0.6,0.6s0.3,0.6,0.6,0.6s0.6-0.3,0.6-0.6S18.9,27.1,18.6,27.1z M18.6,29.5c-0.3,0-0.6,0.3-0.6,0.6
	s0.3,0.6,0.6,0.6s0.6-0.3,0.6-0.6S18.9,29.5,18.6,29.5z M18.6,31.9c-0.3,0-0.6,0.3-0.6,0.6c0,0.3,0.3,0.6,0.6,0.6s0.6-0.3,0.6-0.6
	C19.2,32.2,18.9,31.9,18.6,31.9z"/>
</svg>
