<?xml version="1.0" encoding="utf-8"?>
<!-- Generator: Adobe Illustrator 22.1.0, SVG Export Plug-In . SVG Version: 6.00 Build 0)  -->
<svg version="1.1" id="Слой_1" xmlns="http://www.w3.org/2000/svg" xmlns:xlink="http://www.w3.org/1999/xlink" x="0px" y="0px"
	 viewBox="0 0 538.6 538.2" style="enable-background:new 0 0 538.6 538.2;" xml:space="preserve">
<path d="M269.3-0.3C120.8-0.3,0,120.5,0,269s120.8,269.3,269.3,269.3S538.6,417.4,538.6,269S417.8-0.3,269.3-0.3z M375.9,358.2
	c4.8,4.8,4.8,12.6,0,17.4c-2.4,2.3-5.5,3.5-8.7,3.5c-3.2,0-6.2-1.2-8.7-3.5l-89.2-89.2l-89.2,89.2c-2.4,2.3-5.5,3.5-8.7,3.5
	c-3.2,0-6.2-1.2-8.7-3.5c-4.8-4.8-4.8-12.6,0-17.4l89.2-89.2l-89.2-89.2c-4.8-4.8-4.8-12.6,0-17.4c4.8-4.8,12.6-4.8,17.4,0
	l89.2,89.2l89.2-89.2c4.8-4.8,12.6-4.8,17.4,0c4.8,4.8,4.8,12.6,0,17.4L286.7,269L375.9,358.2z"/>
</svg>
