<?xml version="1.0" encoding="utf-8"?>
<!-- Generator: Adobe Illustrator 22.1.0, SVG Export Plug-In . SVG Version: 6.00 Build 0)  -->
<svg version="1.1" id="icon-delete-database" xmlns="http://www.w3.org/2000/svg" xmlns:xlink="http://www.w3.org/1999/xlink"
	 x="0px" y="0px" viewBox="0 0 65 71" style="enable-background:new 0 0 65 71;" xml:space="preserve">
<path d="M4,0C1.8,0,0,1.8,0,4v9c0,1.2,0.6,2.3,1.4,3C0.6,16.7,0,17.8,0,19v9c0,1.2,0.6,2.3,1.4,3C0.6,31.7,0,32.8,0,34v9
	c0,1.2,0.6,2.3,1.4,3C0.6,46.7,0,47.8,0,49v9c0,2.2,1.8,4,4,4h30.6c2.6,5.3,8.1,9,14.4,9c8.8,0,16-7.2,16-16c0-8.5-6.6-15.4-15-16
	v-5c0-1.2-0.6-2.3-1.4-3c0.9-0.7,1.4-1.8,1.4-3v-9c0-1.2-0.6-2.3-1.4-3c0.9-0.7,1.4-1.8,1.4-3V4c0-2.2-1.8-4-4-4H4z M4,2h42
	c1.1,0,2,0.9,2,2v9c0,1.1-0.9,2-2,2v2c1.1,0,2,0.9,2,2v9c0,1.1-0.9,2-2,2v2c1.1,0,2,0.9,2,2v5c-5,0.3-9.3,2.9-12,6.7
	c-0.1-0.4-0.5-0.7-1-0.8c-0.6,0-1,0.4-1,1s0.4,1,1,1c0.1,0,0.1,0,0.2,0c-1.4,2.4-2.2,5.1-2.2,8c0,1.7,0.3,3.4,0.8,5H4
	c-1.1,0-2-0.9-2-2v-9c0-1.1,0.9-2,2-2v-2c-1.1,0-2-0.9-2-2v-9c0-1.1,0.9-2,2-2v-2c-1.1,0-2-0.9-2-2v-9c0-1.1,0.9-2,2-2v-2
	c-1.1,0-2-0.9-2-2V4C2,2.9,2.9,2,4,2z M30,7v2h6V7H30z M7,15c-0.6,0-1,0.4-1,1s0.4,1,1,1s1-0.4,1-1S7.6,15,7,15z M11,15
	c-0.6,0-1,0.4-1,1s0.4,1,1,1s1-0.4,1-1S11.6,15,11,15z M15,15c-0.6,0-1,0.4-1,1s0.4,1,1,1s1-0.4,1-1S15.6,15,15,15z M19,15
	c-0.6,0-1,0.4-1,1s0.4,1,1,1s1-0.4,1-1S19.6,15,19,15z M23,15c-0.6,0-1,0.4-1,1s0.4,1,1,1s1-0.4,1-1S23.6,15,23,15z M27,15
	c-0.6,0-1,0.4-1,1s0.4,1,1,1s1-0.4,1-1S27.6,15,27,15z M31,15c-0.6,0-1,0.4-1,1s0.4,1,1,1s1-0.4,1-1S31.6,15,31,15z M35,15
	c-0.6,0-1,0.4-1,1s0.4,1,1,1s1-0.4,1-1S35.6,15,35,15z M39,15c-0.6,0-1,0.4-1,1s0.4,1,1,1s1-0.4,1-1S39.6,15,39,15z M43,15
	c-0.6,0-1,0.4-1,1s0.4,1,1,1s1-0.4,1-1S43.6,15,43,15z M30,22v2h6v-2H30z M7,30c-0.6,0-1,0.4-1,1s0.4,1,1,1s1-0.4,1-1S7.6,30,7,30z
	 M11,30c-0.6,0-1,0.4-1,1s0.4,1,1,1s1-0.4,1-1S11.6,30,11,30z M15,30c-0.6,0-1,0.4-1,1s0.4,1,1,1s1-0.4,1-1S15.6,30,15,30z M19,30
	c-0.6,0-1,0.4-1,1s0.4,1,1,1s1-0.4,1-1S19.6,30,19,30z M23,30c-0.6,0-1,0.4-1,1s0.4,1,1,1s1-0.4,1-1S23.6,30,23,30z M27,30
	c-0.6,0-1,0.4-1,1s0.4,1,1,1s1-0.4,1-1S27.6,30,27,30z M31,30c-0.6,0-1,0.4-1,1s0.4,1,1,1s1-0.4,1-1S31.6,30,31,30z M35,30
	c-0.6,0-1,0.4-1,1s0.4,1,1,1s1-0.4,1-1S35.6,30,35,30z M39,30c-0.6,0-1,0.4-1,1s0.4,1,1,1s1-0.4,1-1S39.6,30,39,30z M43,30
	c-0.6,0-1,0.4-1,1s0.4,1,1,1s1-0.4,1-1S43.6,30,43,30z M30,37v2h6v-2H30z M49,41c7.7,0,14,6.3,14,14s-6.3,14-14,14s-14-6.3-14-14
	S41.3,41,49,41z M7,45c-0.6,0-1,0.4-1,1s0.4,1,1,1s1-0.4,1-1S7.6,45,7,45z M11,45c-0.6,0-1,0.4-1,1s0.4,1,1,1s1-0.4,1-1
	S11.6,45,11,45z M15,45c-0.6,0-1,0.4-1,1s0.4,1,1,1s1-0.4,1-1S15.6,45,15,45z M19,45c-0.6,0-1,0.4-1,1s0.4,1,1,1s1-0.4,1-1
	S19.6,45,19,45z M23,45c-0.6,0-1,0.4-1,1s0.4,1,1,1s1-0.4,1-1S23.6,45,23,45z M27,45c-0.6,0-1,0.4-1,1s0.4,1,1,1s1-0.4,1-1
	S27.6,45,27,45z M31,45c-0.6,0-1,0.4-1,1s0.4,1,1,1s1-0.4,1-1S31.6,45,31,45z M44.7,49.3l-1.4,1.4l4.3,4.3l-4.3,4.3l1.4,1.4l4.3-4.3
	l4.3,4.3l1.4-1.4L50.4,55l4.3-4.3l-1.4-1.4L49,53.6L44.7,49.3z"/>
</svg>
