<?xml version="1.0" encoding="utf-8"?>
<!-- Generator: Adobe Illustrator 22.1.0, SVG Export Plug-In . SVG Version: 6.00 Build 0)  -->
<svg version="1.1" id="icon-schedule" xmlns="http://www.w3.org/2000/svg" xmlns:xlink="http://www.w3.org/1999/xlink" x="0px"
	 y="0px" viewBox="0 0 65 67" style="enable-background:new 0 0 65 67;" xml:space="preserve">
<path d="M17,0c-3.1,0-5.9,0.8-8.4,2.2l1,1.7c2.2-1.3,4.7-2,7.4-2c8.3,0,15,6.7,15,15s-6.7,15-15,15S2,25.3,2,17
	c0-2.9,0.8-5.5,2.2-7.8L6,11l1-6L1,6l1.8,1.8C1,10.4,0,13.6,0,17c0,4.7,1.9,9,5,12v33c0,2.8,2.3,5,5,5h50c2.8,0,5-2.3,5-5V12
	c0-2.8-2.3-5-5-5h-7V4c0-1.1-0.9-2-2-2h-2c-1.1,0-2,0.9-2,2v3H30.7C27.6,2.8,22.6,0,17,0z M49,4h2v8h-2V4z M22.2,7.4l-5,7.6
	c0,0-0.1,0-0.1,0c-1.1,0-2,0.9-2,2s0.9,2,2,2c0.2,0,0.3,0,0.5-0.1l4.8,4.8l1.4-1.4l-4.8-4.8c0-0.2,0.1-0.3,0.1-0.5
	c0-0.3-0.1-0.6-0.2-0.9l5-7.6L22.2,7.4z M32,9h15v3c0,1.1,0.9,2,2,2h2c1.1,0,2-0.9,2-2V9h7c1.7,0,3,1.3,3,3v7H33.9
	c0.1-0.7,0.1-1.3,0.1-2C34,14.1,33.3,11.4,32,9z M33.5,21H63v41c0,1.7-1.3,3-3,3H10c-1.7,0-3-1.3-3-3V30.7c2.8,2.1,6.3,3.3,10,3.3
	C25,34,31.7,28.5,33.5,21z M35,29c-0.5,0-1,0.5-1,1s0.5,1,1,1s1-0.5,1-1S35.5,29,35,29z M39,29c-0.5,0-1,0.5-1,1s0.5,1,1,1
	s1-0.5,1-1S39.5,29,39,29z M43,29c-0.5,0-1,0.5-1,1s0.5,1,1,1s1-0.5,1-1S43.5,29,43,29z M47,29c-0.5,0-1,0.5-1,1s0.5,1,1,1
	s1-0.5,1-1S47.5,29,47,29z M51,29c-0.5,0-1,0.5-1,1s0.5,1,1,1s1-0.5,1-1S51.5,29,51,29z M35,33c-0.5,0-1,0.5-1,1s0.5,1,1,1
	s1-0.5,1-1S35.5,33,35,33z M43,33c-0.5,0-1,0.5-1,1s0.5,1,1,1s1-0.5,1-1S43.5,33,43,33z M51,33c-0.5,0-1,0.5-1,1s0.5,1,1,1
	s1-0.5,1-1S51.5,33,51,33z M19,37c-0.5,0-1,0.5-1,1s0.5,1,1,1s1-0.5,1-1S19.5,37,19,37z M23,37c-0.5,0-1,0.5-1,1s0.5,1,1,1
	s1-0.5,1-1S23.5,37,23,37z M27,37c-0.5,0-1,0.5-1,1s0.5,1,1,1s1-0.5,1-1S27.5,37,27,37z M31,37c-0.5,0-1,0.5-1,1s0.5,1,1,1
	s1-0.5,1-1S31.5,37,31,37z M35,37c-0.5,0-1,0.5-1,1s0.5,1,1,1s1-0.5,1-1S35.5,37,35,37z M39,37c-0.5,0-1,0.5-1,1s0.5,1,1,1
	s1-0.5,1-1S39.5,37,39,37z M43,37c-0.5,0-1,0.5-1,1s0.5,1,1,1s1-0.5,1-1S43.5,37,43,37z M47,37c-0.5,0-1,0.5-1,1s0.5,1,1,1
	s1-0.5,1-1S47.5,37,47,37z M51,37c-0.5,0-1,0.5-1,1s0.5,1,1,1s1-0.5,1-1S51.5,37,51,37z M19,41c-0.5,0-1,0.5-1,1s0.5,1,1,1
	s1-0.5,1-1S19.5,41,19,41z M27,41c-0.5,0-1,0.5-1,1s0.5,1,1,1s1-0.5,1-1S27.5,41,27,41z M35,41c-0.5,0-1,0.5-1,1s0.5,1,1,1
	s1-0.5,1-1S35.5,41,35,41z M43,41c-0.5,0-1,0.5-1,1s0.5,1,1,1s1-0.5,1-1S43.5,41,43,41z M51,41c-0.5,0-1,0.5-1,1s0.5,1,1,1
	s1-0.5,1-1S51.5,41,51,41z M19,45c-0.5,0-1,0.5-1,1s0.5,1,1,1s1-0.5,1-1S19.5,45,19,45z M23,45c-0.5,0-1,0.5-1,1s0.5,1,1,1
	s1-0.5,1-1S23.5,45,23,45z M27,45c-0.5,0-1,0.5-1,1s0.5,1,1,1s1-0.5,1-1S27.5,45,27,45z M31,45c-0.5,0-1,0.5-1,1s0.5,1,1,1
	s1-0.5,1-1S31.5,45,31,45z M35,45c-0.5,0-1,0.5-1,1s0.5,1,1,1s1-0.5,1-1S35.5,45,35,45z M39,45c-0.5,0-1,0.5-1,1s0.5,1,1,1
	s1-0.5,1-1S39.5,45,39,45z M43,45c-0.5,0-1,0.5-1,1s0.5,1,1,1s1-0.5,1-1S43.5,45,43,45z M47,45c-0.5,0-1,0.5-1,1s0.5,1,1,1
	s1-0.5,1-1S47.5,45,47,45z M51,45c-0.5,0-1,0.5-1,1s0.5,1,1,1s1-0.5,1-1S51.5,45,51,45z M19,49c-0.5,0-1,0.5-1,1s0.5,1,1,1
	s1-0.5,1-1S19.5,49,19,49z M27,49c-0.5,0-1,0.5-1,1s0.5,1,1,1s1-0.5,1-1S27.5,49,27,49z M35,49c-0.5,0-1,0.5-1,1s0.5,1,1,1
	s1-0.5,1-1S35.5,49,35,49z M43,49c-0.5,0-1,0.5-1,1s0.5,1,1,1s1-0.5,1-1S43.5,49,43,49z M51,49c-0.5,0-1,0.5-1,1s0.5,1,1,1
	s1-0.5,1-1S51.5,49,51,49z M19,53c-0.5,0-1,0.5-1,1s0.5,1,1,1s1-0.5,1-1S19.5,53,19,53z M23,53c-0.5,0-1,0.5-1,1s0.5,1,1,1
	s1-0.5,1-1S23.5,53,23,53z M27,53c-0.5,0-1,0.5-1,1s0.5,1,1,1s1-0.5,1-1S27.5,53,27,53z M31,53c-0.5,0-1,0.5-1,1s0.5,1,1,1
	s1-0.5,1-1S31.5,53,31,53z M35,53c-0.5,0-1,0.5-1,1s0.5,1,1,1s1-0.5,1-1S35.5,53,35,53z M39,53c-0.5,0-1,0.5-1,1s0.5,1,1,1
	s1-0.5,1-1S39.5,53,39,53z M43,53c-0.5,0-1,0.5-1,1s0.5,1,1,1s1-0.5,1-1S43.5,53,43,53z M47,53c-0.5,0-1,0.5-1,1s0.5,1,1,1
	s1-0.5,1-1S47.5,53,47,53z M51,53c-0.5,0-1,0.5-1,1s0.5,1,1,1s1-0.5,1-1S51.5,53,51,53z"/>
</svg>
