<?xml version="1.0" encoding="utf-8"?>
<!-- Generator: Adobe Illustrator 22.1.0, SVG Export Plug-In . SVG Version: 6.00 Build 0)  -->
<svg version="1.1" id="icon-error" xmlns="http://www.w3.org/2000/svg" xmlns:xlink="http://www.w3.org/1999/xlink" x="0px" y="0px"
	 viewBox="0 0 52 52" style="enable-background:new 0 0 52 52;" xml:space="preserve">
<path d="M3,0C1.3,0,0,1.3,0,3v46c0,1.7,1.3,3,3,3h46c1.7,0,3-1.3,3-3V3c0-1.7-1.3-3-3-3H3z M3,2h46c0.5,0,1,0.4,1,1v46
	c0,0.5-0.5,1-1,1H3c-0.6,0-1-0.5-1-1V3C2,2.4,2.4,2,3,2z M8,6C6.9,6,6,6.9,6,8v36c0,1.1,0.9,2,2,2h3c0.6,0,1-0.5,1-1s-0.4-1-1-1H8V8
	h36v36h-3c-0.6,0-1,0.5-1,1s0.4,1,1,1h3c1.1,0,2-0.9,2-2V8c0-1.1-0.9-2-2-2H8z M15,14c-0.3,0-0.5,0.1-0.7,0.3c-0.4,0.4-0.4,1,0,1.4
	L24.6,26L14.3,36.3c-0.4,0.4-0.4,1,0,1.4c0.2,0.2,0.5,0.3,0.7,0.3c0.3,0,0.5-0.1,0.7-0.3L26,27.4l10.3,10.3c0.2,0.2,0.5,0.3,0.7,0.3
	c0.3,0,0.5-0.1,0.7-0.3c0.4-0.4,0.4-1,0-1.4L27.4,26l10.3-10.3c0.4-0.4,0.4-1,0-1.4c-0.4-0.4-1-0.4-1.4,0L26,24.6L15.7,14.3
	C15.5,14.1,15.3,14,15,14z M16,42c-0.6,0-1,0.5-1,1v2c0,0.5,0.4,1,1,1s1-0.5,1-1v-2C17,42.5,16.6,42,16,42z M21,42c-0.6,0-1,0.5-1,1
	v2c0,0.5,0.4,1,1,1s1-0.5,1-1v-2C22,42.5,21.6,42,21,42z M26,42c-0.6,0-1,0.5-1,1v2c0,0.5,0.4,1,1,1s1-0.5,1-1v-2
	C27,42.5,26.6,42,26,42z M31,42c-0.6,0-1,0.5-1,1v2c0,0.5,0.4,1,1,1s1-0.5,1-1v-2C32,42.5,31.6,42,31,42z M36,42c-0.6,0-1,0.5-1,1v2
	c0,0.5,0.4,1,1,1s1-0.5,1-1v-2C37,42.5,36.6,42,36,42z"/>
</svg>
