<?xml version="1.0" encoding="utf-8"?>
<!-- Generator: Adobe Illustrator 22.1.0, SVG Export Plug-In . SVG Version: 6.00 Build 0)  -->
<svg version="1.1" id="Слой_1" xmlns="http://www.w3.org/2000/svg" xmlns:xlink="http://www.w3.org/1999/xlink" x="0px" y="0px"
	 viewBox="0 0 30 37.2" style="enable-background:new 0 0 30 37.2;" xml:space="preserve">
<path d="M0,0v37.2h30V8.8L21.2,0H0z M1.2,1.2h19.2v8.4h8.4V36H1.2V1.2z M21.6,2L28,8.4h-6.4V2z M4.2,2.4C3.9,2.4,3.6,2.7,3.6,3
	s0.3,0.6,0.6,0.6S4.8,3.3,4.8,3S4.5,2.4,4.2,2.4z M4.2,4.8c-0.3,0-0.6,0.3-0.6,0.6S3.9,6,4.2,6s0.6-0.3,0.6-0.6S4.5,4.8,4.2,4.8z
	 M4.2,7.2c-0.3,0-0.6,0.3-0.6,0.6c0,0.3,0.3,0.6,0.6,0.6s0.6-0.3,0.6-0.6C4.8,7.5,4.5,7.2,4.2,7.2z M4.2,9.6c-0.3,0-0.6,0.3-0.6,0.6
	c0,0.3,0.3,0.6,0.6,0.6s0.6-0.3,0.6-0.6C4.8,9.9,4.5,9.6,4.2,9.6z M4.2,12c-0.3,0-0.6,0.3-0.6,0.6c0,0.3,0.3,0.6,0.6,0.6
	s0.6-0.3,0.6-0.6C4.8,12.3,4.5,12,4.2,12z M4.2,14.4c-0.3,0-0.6,0.3-0.6,0.6c0,0.3,0.3,0.6,0.6,0.6s0.6-0.3,0.6-0.6
	C4.8,14.7,4.5,14.4,4.2,14.4z M7.8,15v1.2H24V15H7.8z M4.2,16.8c-0.3,0-0.6,0.3-0.6,0.6c0,0.3,0.3,0.6,0.6,0.6s0.6-0.3,0.6-0.6
	C4.8,17.1,4.5,16.8,4.2,16.8z M7.8,18.6v1.2h13.8v-1.2H7.8z M4.2,19.2c-0.3,0-0.6,0.3-0.6,0.6s0.3,0.6,0.6,0.6s0.6-0.3,0.6-0.6
	S4.5,19.2,4.2,19.2z M4.2,21.6c-0.3,0-0.6,0.3-0.6,0.6s0.3,0.6,0.6,0.6s0.6-0.3,0.6-0.6S4.5,21.6,4.2,21.6z M7.8,22.2v1.2H24v-1.2
	H7.8z M4.2,24c-0.3,0-0.6,0.3-0.6,0.6c0,0.3,0.3,0.6,0.6,0.6s0.6-0.3,0.6-0.6C4.8,24.3,4.5,24,4.2,24z M7.8,25.8V27h13.8v-1.2H7.8z
	 M4.2,26.4c-0.3,0-0.6,0.3-0.6,0.6c0,0.3,0.3,0.6,0.6,0.6s0.6-0.3,0.6-0.6C4.8,26.7,4.5,26.4,4.2,26.4z M4.2,28.8
	c-0.3,0-0.6,0.3-0.6,0.6S3.9,30,4.2,30s0.6-0.3,0.6-0.6S4.5,28.8,4.2,28.8z M4.2,31.2c-0.3,0-0.6,0.3-0.6,0.6s0.3,0.6,0.6,0.6
	s0.6-0.3,0.6-0.6S4.5,31.2,4.2,31.2z M4.2,33.6c-0.3,0-0.6,0.3-0.6,0.6c0,0.3,0.3,0.6,0.6,0.6s0.6-0.3,0.6-0.6
	C4.8,33.9,4.5,33.6,4.2,33.6z"/>
</svg>
