<?xml version="1.0" encoding="utf-8"?>
<!-- Generator: Adobe Illustrator 22.1.0, SVG Export Plug-In . SVG Version: 6.00 Build 0)  -->
<svg version="1.1" id="icon-logout" xmlns="http://www.w3.org/2000/svg" xmlns:xlink="http://www.w3.org/1999/xlink" x="0px"
	 y="0px" viewBox="0 0 563 563.2" style="enable-background:new 0 0 563 563.2;" xml:space="preserve">
<path d="M281.3,0c-6.7,0.1-12.1,5.7-12,12.4v269.3c0,4.4,2.3,8.5,6.1,10.8c3.8,2.2,8.5,2.2,12.3,0c3.8-2.3,6.1-6.4,6.1-10.8V12.4
	c0-3.3-1.2-6.5-3.6-8.8C287.8,1.3,284.6,0,281.3,0L281.3,0z M196.4,14.1c-1.5,0-3.1,0.2-4.4,0.7C80.4,52.3,0,157.7,0,281.7
	C0,437,126.2,563.2,281.5,563.2S563,437,563,281.7c0-124-80.4-229.5-192-266.9c-6.4-2.1-13.3,1.3-15.5,7.7
	c-2.1,6.4,1.3,13.3,7.8,15.5c101.8,34.1,175.2,130.2,175.2,243.6c0,142.1-114.9,257-257,257s-257-114.9-257-257
	c0-113.5,73.4-209.5,175.2-243.6c5.7-1.9,9.2-7.5,8.4-13.4C207.3,18.8,202.3,14.3,196.4,14.1z"/>
</svg>
