<?xml version="1.0" encoding="utf-8"?>
<!-- Generator: Adobe Illustrator 22.1.0, SVG Export Plug-In . SVG Version: 6.00 Build 0)  -->
<svg version="1.1" id="Слой_1" xmlns="http://www.w3.org/2000/svg" xmlns:xlink="http://www.w3.org/1999/xlink" x="0px" y="0px"
	 viewBox="0 0 38.4 40" style="enable-background:new 0 0 38.4 40;" xml:space="preserve">
<path d="M16,0c-2.6,0-4.8,2.2-4.8,4.8c0,0.6,0.1,1.1,0.3,1.6H3.2C1.4,6.4,0,7.8,0,9.6v3.2h38.4V9.6c0-1.8-1.4-3.2-3.2-3.2h-8.3
	c0.2-0.5,0.3-1,0.3-1.6C27.2,2.2,25,0,22.4,0c-1.2,0-2.3,0.5-3.2,1.3C18.3,0.5,17.2,0,16,0z M16,3.2c0.9,0,1.6,0.7,1.6,1.6v1.6H16
	c-0.9,0-1.6-0.7-1.6-1.6S15.1,3.2,16,3.2z M22.4,3.2c0.9,0,1.6,0.7,1.6,1.6s-0.7,1.6-1.6,1.6h-1.6V4.8C20.8,3.9,21.5,3.2,22.4,3.2z
	 M1.6,16v20.8C1.6,38.6,3,40,4.8,40h12.8V16H1.6z M20.8,16v24h12.8c1.8,0,3.2-1.4,3.2-3.2V16H20.8z"/>
</svg>
