<?xml version="1.0" ?><svg height="32" width="32" xmlns="http://www.w3.org/2000/svg"><path clip-rule="evenodd" d="M15.999.002c8.837 0 16 7.164 16 16 0 8.837-7.163 16-16 16s-16-7.163-16-16c0-8.836 7.163-16 16-16z" fill="#DD4B39" fill-rule="evenodd"/><path d="M18.519 17.225c-1.633-1.163-2.243-1.712-1.197-2.633 1.045-.923 1.872-1.669 1.872-3.382l-1.415-2.589s1.023.152 1.568-.154l.782-.504h-5.204c-1.044 0-3.939 1.184-3.939 3.949 0 2.767 3.004 3.359 4.094 3.315-.61.747-.088 1.427.239 1.776.327.352.261.461-.13.461-.393 0-5.227.053-5.227 3.514s6.423 3.711 8.535 1.846c2.111-1.865 1.654-4.437.022-5.599zm-3.092-2.678c-2.592 0-3.768-6.058-.719-6.058 2.373-.089 4.158 6.058.719 6.058zm-.307 8.473c-2.154 0-3.309-1.075-3.309-2.678 0-1.604 1.568-2.393 4.508-2.393.797.613 2.221 1.359 2.221 2.854 0 1.493-1.268 2.217-3.42 2.217zm7.894-13.048v-1.97h-1.017v1.97h-1.992v1.022h1.992v1.973h1.017v-1.973h1.959v-1.022h-1.959z" fill="#fff"/></svg>
