<?xml version="1.0" encoding="utf-8"?>
<!-- Generator: Adobe Illustrator 21.0.0, SVG Export Plug-In . SVG Version: 6.00 Build 0)  -->
<svg version="1.1" id="Layer_1" xmlns="http://www.w3.org/2000/svg" xmlns:xlink="http://www.w3.org/1999/xlink" x="0px" y="0px"
	 viewBox="0 0 16 16" style="enable-background:new 0 0 16 16;" xml:space="preserve">
<path d="M11.7,0.3c-0.4-0.4-1-0.4-1.4,0c-0.1,0.1-0.2,0.2-0.2,0.4C9.3,2.4,8.3,3.4,7.2,3.9C5.9,4.6,4.4,5,2,5C1.9,5,1.7,5,1.6,5.1
	C1.4,5.2,1.2,5.4,1.1,5.6C1,5.9,1,6.2,1.1,6.4c0.1,0.1,0.1,0.2,0.2,0.3L4.5,10L0,16l6.1-4.5l3.2,3.2c0.1,0.1,0.2,0.2,0.3,0.2
	C9.7,15,9.9,15,10,15s0.3,0,0.4-0.1c0.2-0.1,0.4-0.3,0.5-0.5C11,14.3,11,14.2,11,14c0-2.4,0.4-3.9,1.1-5.2c0.6-1.2,1.6-2.1,3.3-2.9
	c0.1,0,0.3-0.1,0.4-0.2c0.4-0.4,0.4-1,0-1.4L11.7,0.3z"/>
</svg>
