<?xml version="1.0" encoding="utf-8"?>
<!-- Generator: Adobe Illustrator 22.1.0, SVG Export Plug-In . SVG Version: 6.00 Build 0)  -->
<svg version="1.1" id="Слой_1" xmlns="http://www.w3.org/2000/svg" xmlns:xlink="http://www.w3.org/1999/xlink" x="0px" y="0px"
	 viewBox="0 0 60 61" style="enable-background:new 0 0 60 61;" xml:space="preserve">
<path d="M30,0c-6.6,0-12,5.4-12,12c0,3.6,1.6,6.8,4.1,9H3c-1.7,0-3,1.4-3,3v16c0,1.7,1.3,3,3,3h3.9L6.1,58.9c0,0.5,0.2,1.1,0.5,1.5
	S7.5,61,8.1,61h2.1c1,0,1.8-0.7,2-1.7L14.8,43h30.3l2.7,16.3c0.2,1,1,1.7,2,1.7h2.1c0.5,0,1.1-0.2,1.5-0.6s0.6-0.9,0.5-1.5L53.1,43
	H57c1.7,0,3-1.3,3-3V24c0-1.6-1.3-3-3-3H37.9c2.5-2.2,4.1-5.4,4.1-9C42,5.4,36.6,0,30,0z M30,2c5.5,0,10,4.5,10,10
	c0,4-2.3,7.4-5.7,9h-8.7c-3.3-1.6-5.7-5-5.7-9C20,6.5,24.5,2,30,2z M26,9c-1.1,0-2,0.9-2,2v2c0,1.1,0.9,2,2,2h8c1.1,0,2-0.9,2-2v-2
	c0-1.1-0.9-2-2-2H26z M26,11h8l0,2h-8V11z M3,23h6.2L2,35.1V24C2,23.5,2.4,23,3,23z M11.6,23h7.7L8.4,41H7.1H3c-0.6,0-1-0.5-1-1
	v-1.1L11.6,23z M21.6,23h3.6h4l-8.7,14.5c-0.3,0.5-0.1,1.1,0.3,1.4C21,39,21.2,39,21.4,39c0.3,0,0.7-0.2,0.9-0.5L31.6,23h3.2h4.4
	L28.4,41H15.2h-4.4L21.6,23z M41.6,23H57c0.5,0,1,0.5,1,1v1.1L48.4,41h-3.6h-4.1l5.6-9.3c0.3-0.5,0.1-1.1-0.3-1.4
	c-0.5-0.3-1.1-0.1-1.4,0.3L38.4,41h-7.7L41.6,23z M49.1,24.3c-0.4-0.1-0.8,0.1-1,0.5l-1.4,2.3c-0.3,0.5-0.1,1.1,0.3,1.4
	c0.2,0.1,0.3,0.1,0.5,0.1c0.3,0,0.7-0.2,0.9-0.5l1.4-2.3c0.3-0.5,0.1-1.1-0.3-1.4C49.4,24.4,49.3,24.4,49.1,24.3z M58,28.9V40
	c0,0.5-0.5,1-1,1h-4.1h-2.2L58,28.9z M8.9,43h3.9l-2.7,16H8.1L8.9,43z M47.2,43h3.9l0.9,16h-2.1h0L47.2,43z M15,53c-0.6,0-1,0.4-1,1
	v2c0,0.6,0.4,1,1,1s1-0.4,1-1v-2C16,53.4,15.6,53,15,53z M20,53c-0.6,0-1,0.4-1,1v2c0,0.6,0.4,1,1,1s1-0.4,1-1v-2
	C21,53.4,20.6,53,20,53z M25,53c-0.6,0-1,0.4-1,1v2c0,0.6,0.4,1,1,1s1-0.4,1-1v-2C26,53.4,25.6,53,25,53z M30,53c-0.6,0-1,0.4-1,1v2
	c0,0.6,0.4,1,1,1c0.6,0,1-0.4,1-1v-2C31,53.4,30.6,53,30,53z M35,53c-0.6,0-1,0.4-1,1v2c0,0.6,0.4,1,1,1s1-0.4,1-1v-2
	C36,53.4,35.6,53,35,53z M40,53c-0.6,0-1,0.4-1,1v2c0,0.6,0.4,1,1,1s1-0.4,1-1v-2C41,53.4,40.6,53,40,53z M45,53c-0.6,0-1,0.4-1,1v2
	c0,0.6,0.4,1,1,1s1-0.4,1-1v-2C46,53.4,45.6,53,45,53z"/>
</svg>
