<?xml version="1.0" encoding="utf-8"?>
<!-- Generator: Adobe Illustrator 22.1.0, SVG Export Plug-In . SVG Version: 6.00 Build 0)  -->
<svg version="1.1" id="Слой_1" xmlns="http://www.w3.org/2000/svg" xmlns:xlink="http://www.w3.org/1999/xlink" x="0px" y="0px"
	 viewBox="0 0 48 48" style="enable-background:new 0 0 48 48;" xml:space="preserve">
<path d="M47.6,0.2c-0.3-0.2-0.7-0.3-1-0.1l-46.1,25C0.2,25.3,0,25.6,0,26c0,0.4,0.3,0.7,0.6,0.8l13.1,4.3l-1.3,13
	c0,0.4,0.2,0.8,0.6,1c0.1,0.1,0.3,0.1,0.4,0.1c0.3,0,0.5-0.1,0.7-0.3l8.3-9.3l12.4,12.3c0.2,0.2,0.4,0.3,0.7,0.3c0.1,0,0.2,0,0.3,0
	c0.3-0.1,0.6-0.4,0.7-0.7L48,1.2C48.1,0.8,47.9,0.4,47.6,0.2z M15.7,30.9l18.7-15.1L21.7,33.5l-7,7.9L15.7,30.9z"/>
</svg>
