<?xml version="1.0" encoding="utf-8"?>
<!-- Generator: Adobe Illustrator 22.1.0, SVG Export Plug-In . SVG Version: 6.00 Build 0)  -->
<svg version="1.1" id="Слой_1" xmlns="http://www.w3.org/2000/svg" xmlns:xlink="http://www.w3.org/1999/xlink" x="0px" y="0px"
	 viewBox="0 0 612 610.2" style="enable-background:new 0 0 612 610.2;" xml:space="preserve">
<path d="M477,0c-40.3-0.1-124.4-1.5-169.5,43.6l-8,8V52c-48.1,48.4-53.7,120.8-19.1,175.2L29.4,456.7l-0.4,0.4
	c-11,11-22.6,29.5-26,52.4c-3.4,23,2.5,50.3,26,73.8c23.5,23.5,50.9,29.5,73.8,26c23-3.4,41.4-15,52.4-26h0.4V583
	c0,0,57.7-65.2,115.9-130.1c29.2-32.5,58.3-64.7,80.7-88.7c11.2-12,20.9-22,27.5-28.7c1.9-1.9,2.8-2.9,4.2-4.2
	c54.4,35.9,127.6,30.9,176.3-18l8-8c22-21.9,32.2-54,37.5-85.3c5.3-31.3,5.3-62.1,5.4-82.6c0-4.7,0-9.3-3.8-13.8
	c-3.8-4.5-10.9-5.7-14.5-5c-7.3,1.5-10.3,5.3-10.3,5.3l-0.4,0.4l-79.6,80c-0.4,0.2-0.5,0.3-1.1,0.4c-2.2,0.3-5.7,0.7-10,0.8
	c-8.6,0.1-20.3-0.5-31.7-1.5c-11.4-1.1-22.9-2.8-31.8-4.6c-4.5-0.9-8.2-1.8-10.7-2.7c-0.9-0.3-1.4-0.5-1.9-0.8
	c-0.3-0.4-0.5-0.9-0.8-1.5c-0.8-2.4-1.4-6.4-2.3-10.7c-1.7-8.6-3.2-19.8-4.2-31c-1-11.2-1.5-22.5-1.2-31c0.2-4.2,0.3-7.7,0.8-9.9
	c0.2-1.1,0.6-1.7,0.8-1.9c10.6-10.6,80.3-80,80.3-80l0.4-0.4v-0.4c0,0,3.6-2.6,5.4-9.5c0.9-3.5,0.6-10.3-3.8-14.6
	C486.3,0.8,481.6,0,477,0z M460.9,24.5c-15.2,15.2-62.3,62.3-70,70c-4.6,4.6-4.9,8.5-5.8,12.6c-0.8,4.1-1.3,8.8-1.5,13.8
	c-0.4,10,0.1,21.7,1.1,33.7c1,12,2.6,23.8,4.6,33.7c1,4.9,2.2,9.5,3.5,13.4c1.3,3.9,2.1,7.1,6.1,11.1c4.1,4.1,7.2,4.8,11.1,6.1
	c3.9,1.3,8.4,2.4,13.4,3.4c10,2,22.3,3.5,34.4,4.6c12.1,1.2,23.8,2,33.7,1.9c4.9,0,9.5-0.6,13.4-1.1c3.9-0.6,7.2,0.5,12.6-5
	c6-6.1,54.1-54.7,69.6-70.4c-0.3,19.1-0.2,40.5-4.2,63.9c-4.9,28.9-14.7,56.4-31,72.7l-8,8c-47.3,47.3-120.1,46.1-166.4-0.4
	l-61.2-61.2c-46.3-46.5-47.5-119.4-0.4-166.8l8-8.4C354.4,29.6,418.7,25.2,460.9,24.5L460.9,24.5z M293.8,244.8
	c2,2.3,3.9,4.7,6.1,6.9l61.2,61.2c1.7,1.7,3.6,3,5.4,4.6l-2.3,2.3c-7.1,7-16.6,17-27.9,29.1c-22.6,24.2-51.9,56.6-81.1,89.1
	C196.9,502.8,140,567.7,139.6,568l-0.4,0.4c-7.5,7.3-22.8,16.5-39.8,19.1c-17.2,2.6-35.7-0.5-54.7-19.5c-19-19-22.5-37.8-19.9-55.1
	c2.6-17,12.2-32.3,19.5-39.8l0.4-0.4L293.8,244.8z"/>
</svg>
