<?xml version="1.0" encoding="utf-8"?>
<!-- Generator: Adobe Illustrator 22.1.0, SVG Export Plug-In . SVG Version: 6.00 Build 0)  -->
<svg version="1.1" id="Слой_1" xmlns="http://www.w3.org/2000/svg" xmlns:xlink="http://www.w3.org/1999/xlink" x="0px" y="0px"
	 viewBox="0 0 42 36" style="enable-background:new 0 0 42 36;" xml:space="preserve">
<path d="M2.3,0C1,0,0,1,0,2.3v31.5C0,35,1,36,2.3,36h37.5c1.2,0,2.3-1,2.3-2.3V2.3C42,1,41,0,39.8,0H2.3z M2.3,1.5h37.5
	c0.4,0,0.8,0.3,0.8,0.8v31.5c0,0.4-0.3,0.8-0.8,0.8H2.3c-0.4,0-0.8-0.3-0.8-0.8V9h30.8C32.7,9,33,8.7,33,8.3s-0.3-0.8-0.8-0.8H1.5
	V2.3C1.5,1.8,1.8,1.5,2.3,1.5z M4.5,3C4.1,3,3.8,3.3,3.8,3.8v1.5C3.8,5.7,4.1,6,4.5,6s0.8-0.3,0.8-0.8V3.8C5.3,3.3,4.9,3,4.5,3z
	 M8.3,3C7.8,3,7.5,3.3,7.5,3.8v1.5C7.5,5.7,7.8,6,8.3,6S9,5.7,9,5.3V3.8C9,3.3,8.7,3,8.3,3z M12,3c-0.4,0-0.8,0.3-0.8,0.8v1.5
	C11.3,5.7,11.6,6,12,6s0.8-0.3,0.8-0.8V3.8C12.8,3.3,12.4,3,12,3z M15.8,3C15.3,3,15,3.3,15,3.8v1.5C15,5.7,15.3,6,15.8,6
	s0.8-0.3,0.8-0.8V3.8C16.5,3.3,16.2,3,15.8,3z M19.5,3c-0.4,0-0.8,0.3-0.8,0.8v1.5c0,0.4,0.3,0.8,0.8,0.8s0.8-0.3,0.8-0.8V3.8
	C20.3,3.3,19.9,3,19.5,3z M23.3,3c-0.4,0-0.8,0.3-0.8,0.8v1.5c0,0.4,0.3,0.8,0.8,0.8S24,5.7,24,5.3V3.8C24,3.3,23.7,3,23.3,3z M27,3
	c-0.4,0-0.8,0.3-0.8,0.8v1.5C26.3,5.7,26.6,6,27,6s0.8-0.3,0.8-0.8V3.8C27.8,3.3,27.4,3,27,3z M30.8,3C30.3,3,30,3.3,30,3.8v1.5
	C30,5.7,30.3,6,30.8,6s0.8-0.3,0.8-0.8V3.8C31.5,3.3,31.2,3,30.8,3z M34.5,3c-0.4,0-0.8,0.3-0.8,0.8v1.5c0,0.4,0.3,0.8,0.8,0.8
	s0.8-0.3,0.8-0.8V3.8C35.3,3.3,34.9,3,34.5,3z M38.3,3c-0.4,0-0.8,0.3-0.8,0.8v1.5c0,0.4,0.3,0.8,0.8,0.8S39,5.7,39,5.3V3.8
	C39,3.3,38.7,3,38.3,3z M35.3,7.5c-0.4,0-0.8,0.3-0.8,0.8S34.8,9,35.3,9h3C38.7,9,39,8.7,39,8.3s-0.3-0.8-0.8-0.8H35.3z M21,12
	c-5.4,0-9.8,4.4-9.8,9.8c0,2.8,1.2,5.3,3.1,7.1c0,0.1,0.1,0.1,0.1,0.2c0.1,0.1,0.2,0.1,0.2,0.2c1.7,1.4,3.9,2.3,6.3,2.3
	c5.4,0,9.8-4.4,9.8-9.8c0-2.4-0.9-4.6-2.3-6.3c0-0.1-0.1-0.2-0.2-0.2c0,0-0.1-0.1-0.2-0.1C26.3,13.2,23.8,12,21,12z M21,13.5
	c2.2,0,4.2,0.9,5.7,2.3L15,27.4c-1.4-1.5-2.3-3.5-2.3-5.7C12.8,17.2,16.5,13.5,21,13.5z M27.7,16.9c1,1.4,1.6,3,1.6,4.9
	c0,4.5-3.7,8.3-8.3,8.3c-1.8,0-3.5-0.6-4.9-1.6L27.7,16.9z"/>
</svg>
