<?xml version="1.0" encoding="utf-8"?>
<!-- Generator: Adobe Illustrator 22.1.0, SVG Export Plug-In . SVG Version: 6.00 Build 0)  -->
<svg version="1.1" id="Слой_1" xmlns="http://www.w3.org/2000/svg" xmlns:xlink="http://www.w3.org/1999/xlink" x="0px" y="0px"
	 viewBox="0 0 44.2 44.2" style="enable-background:new 0 0 44.2 44.2;" xml:space="preserve">
<path d="M19.4,0c-0.5,0-0.9,0.3-0.9,0.8l-0.9,5.7c-1.1,0.3-2.2,0.8-3.2,1.3L9.6,4.5C9.2,4.2,8.7,4.2,8.4,4.6L4.6,8.3
	C4.3,8.6,4.2,9.1,4.5,9.5l3.3,4.7c-0.6,1-1,2.1-1.3,3.2l-5.7,0.9C0.3,18.5,0,18.9,0,19.4v5.3c0,0.5,0.3,0.9,0.8,0.9l5.7,1
	c0.3,1.1,0.8,2.2,1.3,3.2l-3.4,4.7c-0.3,0.4-0.2,0.9,0.1,1.2l3.7,3.7c0.3,0.3,0.8,0.4,1.2,0.1l4.8-3.3c1,0.6,2.1,1,3.2,1.3l1,5.7
	c0.1,0.5,0.5,0.8,0.9,0.8h5.3c0.5,0,0.9-0.3,0.9-0.8l1-5.7c1.1-0.3,2.2-0.8,3.2-1.3l4.8,3.4c0.4,0.3,0.9,0.2,1.2-0.1l3.7-3.7
	c0.3-0.3,0.4-0.9,0.1-1.2l-3.4-4.7c0.5-1,1-2.1,1.3-3.2l5.8-1c0.5-0.1,0.8-0.5,0.8-0.9v-5.3c0-0.5-0.3-0.9-0.8-0.9l-5.8-0.9
	c-0.3-1.1-0.8-2.2-1.3-3.2l3.4-4.8c0.3-0.4,0.2-0.9-0.1-1.2l-3.7-3.7c-0.3-0.3-0.9-0.4-1.2-0.1l-4.7,3.4c-1-0.6-2.1-1-3.2-1.3
	l-1-5.7C25.5,0.3,25.1,0,24.7,0H19.4z M20.2,1.9h3.7l1,5.5c0.1,0.4,0.3,0.7,0.7,0.8c1.4,0.3,2.7,0.9,3.9,1.6c0.3,0.2,0.7,0.2,1.1,0
	L35,6.5l2.6,2.6l-3.2,4.6c-0.2,0.3-0.2,0.7,0,1c0.7,1.2,1.3,2.5,1.6,3.9c0.1,0.4,0.4,0.7,0.8,0.7l5.5,0.9v3.7l-5.5,1
	c-0.4,0.1-0.7,0.3-0.8,0.7c-0.3,1.4-0.9,2.7-1.6,3.9c-0.2,0.3-0.2,0.7,0,1.1l3.2,4.5l-2.6,2.6l-4.6-3.2c-0.3-0.2-0.7-0.2-1.1,0
	c-1.2,0.7-2.5,1.3-3.9,1.6c-0.4,0.1-0.6,0.4-0.7,0.8l-1,5.5h-3.7l-0.9-5.4c-0.1-0.4-0.3-0.7-0.7-0.8c-1.4-0.3-2.7-0.9-3.9-1.6
	c-0.3-0.2-0.7-0.2-1,0l-4.5,3.2L6.5,35l3.2-4.5c0.2-0.3,0.2-0.7,0-1.1c-0.7-1.2-1.3-2.5-1.6-4c-0.1-0.4-0.4-0.6-0.8-0.7l-5.4-1v-3.7
	l5.4-0.9C7.7,19.2,8,19,8.1,18.6c0.4-1.4,0.9-2.7,1.6-4c0.2-0.3,0.2-0.7,0-1L6.6,9.1l2.6-2.6l4.5,3.2c0.3,0.2,0.7,0.2,1.1,0
	c1.2-0.7,2.5-1.3,3.9-1.6C19,8,19.3,7.7,19.3,7.3L20.2,1.9z M22.1,14.4c-4.2,0-7.7,3.4-7.7,7.7s3.4,7.7,7.7,7.7s7.7-3.4,7.7-7.7
	S26.3,14.4,22.1,14.4z M22.1,16.3c3.2,0,5.8,2.6,5.8,5.8s-2.6,5.8-5.8,5.8s-5.8-2.6-5.8-5.8S18.9,16.3,22.1,16.3z"/>
</svg>
