<?xml version="1.0" encoding="utf-8"?>
<!-- Generator: Adobe Illustrator 22.1.0, SVG Export Plug-In . SVG Version: 6.00 Build 0)  -->
<svg version="1.1" id="Слой_1" xmlns="http://www.w3.org/2000/svg" xmlns:xlink="http://www.w3.org/1999/xlink" x="0px" y="0px"
	 viewBox="0 0 612 611.9" style="enable-background:new 0 0 612 611.9;" xml:space="preserve">
<path d="M146.9,0c-13.4,0-24.5,11.1-24.5,24.5v244.8c0,13.4,11.1,24.5,24.5,24.5h367.2c13.4,0,24.5-11.1,24.5-24.5V24.5
	c0-13.4-11.1-24.5-24.5-24.5H146.9z M146.9,24.5h367.2v244.8H146.9V24.5z M275.4,49c-16.7,0-30.6,13.9-30.6,30.6
	s13.9,30.6,30.6,30.6h110.2c16.7,0,30.6-13.9,30.6-30.6S402.3,49,385.6,49H275.4z M275.4,73.4h110.2c3.5,0,6.1,2.6,6.1,6.1
	s-2.6,6.1-6.1,6.1H275.4c-3.5,0-6.1-2.6-6.1-6.1S271.9,73.4,275.4,73.4z M164.9,342.7c-34.7,0-50.7,8.4-68.1,15.3
	c-33.1,13.1-89.9,40.6-89.9,40.6c-4.5,1.5-7.6,5.5-8.2,10.2c-0.5,4.7,1.7,9.3,5.8,11.8c4,2.4,9.1,2.4,13.1-0.2
	c0,0,57.2-27.4,88.4-39.8c19.1-7.5,27.7-13.4,58.9-13.4c68.7,0,66.7,30.9,94.9,47.8c10.1,6.1,26,10.8,44,15.3c1.5,0.9,3.2,1.4,5,1.5
	c0.1,0.1,0.2,0,0.4,0c20.2,4.9,41.7,8.8,58.1,8.8c7.2,0,13.3,0.8,18.4,1.9h0.8c4.6,1.1,8.2,2.6,10.7,4.2c5.3,3.4,6.9,6.2,6.9,12.2
	c0,7.1-1.5,9.4-6.9,12.6c-5.3,3.2-15.7,5.7-29.8,5.7H296c-30,0-72.3-11.9-72.3-11.9c-6.5-1.9-13.4,1.9-15.3,8.4
	c-1.9,6.5,1.9,13.4,8.4,15.3c0,0,43.2,12.6,79.2,12.6h71.1c16.5,0,30.6-2.4,42.1-9.2c3.3-2,6.2-4.4,8.8-7.3c1.1-0.4,2.1-0.9,3.1-1.5
	l110.2-74.2c19.1-11.3,32.3-14.3,40.2-14.2c7.8,0.1,10.5,2.5,13,5.7c3.6,4.7,3.9,7.4,1.5,13c-2.3,5.6-8.8,13.4-20.7,21.8
	C550.6,446.5,388.9,554,369.9,565c-14.1,8.1-25.3,17-38.3,20.7c-13,3.7-28.4,3.4-53.5-8.8c-16.7-8.1-87.6-45.1-110.6-57
	c-12.7-6.6-23.1-10.2-34.1-9.6c-10.9,0.6-20.5,5.6-30.2,11.8l-32.9,21.4c-5.7,3.7-7.3,11.3-3.6,17c3.7,5.7,11.3,7.3,17,3.6
	l32.9-21.4c8.6-5.5,13.4-7.8,18-8s10.9,1.2,21.8,6.9c22.8,11.8,92.5,48.4,110.9,57.4c28.9,14.1,52.1,15.3,70.7,9.9
	c18.7-5.3,32-16,44-23c25.5-14.8,178.9-117,197.4-130c14.1-10,24-20.4,29.1-32.5c5.1-12.1,3.5-26.5-4.6-37.1
	c-6.4-8.4-17.7-15-32.1-15.3c-10.2-0.2-22.5,3.5-36,9.6c-0.5-2.5,0.7-5.3-0.4-7.7c-4.2-9.1-13.7-15.2-24.1-17.2
	c-13.6-2.7-29.1,1.4-44.4,8.4c-1.1-3.3-2-6.9-4.2-9.5c-6.6-7.9-16.1-10.4-24.9-11.1c-17.5-1.3-35.7,4.3-49,12.2
	c-18.3,10.9-73,45.4-81.1,50.5c-16.4-4.4-31.2-9.6-35.6-12.2C261.1,387.2,242,342.7,164.9,342.7L164.9,342.7z M436,368
	c4.9,0.4,7.4,1.9,8,2.7c0.5,0.6,1.5,1.7,1.2,5.4l-60.4,41.3c-5.5-0.9-11.3-1.2-17.6-1.2c-6.5,0-15.3-1.2-24.8-2.7
	c21.3-13.4,47.6-29.8,59.3-36.7C409.8,371.9,426.2,367.2,436,368L436,368z M498.8,379.4c3.3-0.3,5.9-0.4,8,0c5.1,1,5.7,2.1,6.5,3.8
	c0.6,1.3,0.9,4.6,0.4,8.8l-86.4,58.1c-2.1-8.8-7.2-16.7-14.5-22.2l50.5-34.8c1.5-0.8,2.8-1.8,3.8-3.1
	C478,383.5,490.1,380.2,498.8,379.4L498.8,379.4z"/>
</svg>
