<?xml version="1.0" encoding="utf-8"?>
<!-- Generator: Adobe Illustrator 22.1.0, SVG Export Plug-In . SVG Version: 6.00 Build 0)  -->
<svg version="1.1" id="Слой_1" xmlns="http://www.w3.org/2000/svg" xmlns:xlink="http://www.w3.org/1999/xlink" x="0px" y="0px"
	 viewBox="0 0 96 73" style="enable-background:new 0 0 96 73;" xml:space="preserve">
<g id="surface1">
	<path d="M90.2,0c-2.6,0-4.8,1.8-5.5,4.3L10.9,26.4C10,24.4,8.1,23,5.8,23C2.6,23,0,25.6,0,28.8v11.5c0,3.2,2.6,5.8,5.8,5.8
		c2.3,0,4.2-1.3,5.2-3.2l15.3,5.3l-1.5,4c0,0,0,0,0,0.1c-1.5,4.5,0.9,9.3,5.4,10.8l8,2.7c4.5,1.5,9.3-0.9,10.8-5.4l1.3-3.8
		l34.6,12.1c0.7,2.5,2.9,4.3,5.5,4.3c3.2,0,5.8-2.6,5.8-5.8V5.8C96,2.6,93.4,0,90.2,0z M90.2,3.8c1.1,0,1.9,0.8,1.9,1.9v61.4
		c0,1.1-0.8,1.9-1.9,1.9c-1.1,0-1.9-0.8-1.9-1.9c0,0,0,0,0-0.1V5.8c0-0.1,0-0.1,0-0.2C88.4,4.6,89.2,3.8,90.2,3.8z M84.5,8.3v56.2
		l-73-25.6v-8.7L84.5,8.3z M5.8,26.9c1,0,1.8,0.7,1.9,1.7c0,0.1,0,0.1,0,0.2v11.5c0,0.1,0,0.1,0,0.2c-0.1,1-0.9,1.7-1.9,1.7
		c-1.1,0-1.9-0.8-1.9-1.9V28.8C3.8,27.7,4.7,26.9,5.8,26.9z M29.8,49.4l16.7,5.8L45.2,59c-0.8,2.5-3.4,3.8-5.9,3l-8-2.6
		c-2.5-0.8-3.7-3.5-2.9-5.9c0,0,0,0,0-0.1L29.8,49.4z"/>
</g>
</svg>
