<?xml version="1.0" encoding="utf-8"?>
<!-- Generator: Adobe Illustrator 22.1.0, SVG Export Plug-In . SVG Version: 6.00 Build 0)  -->
<svg version="1.1" id="Слой_1" xmlns="http://www.w3.org/2000/svg" xmlns:xlink="http://www.w3.org/1999/xlink" x="0px" y="0px"
	 viewBox="0 0 612 514.1" style="enable-background:new 0 0 612 514.1;" xml:space="preserve">
<path d="M10,0C4.1,1.1-0.1,6.3,0,12.2v489.6c0,6.7,5.5,12.2,12.2,12.2h587.5c6.7,0,12.2-5.5,12.2-12.2V12.2C612,5.5,606.5,0,599.8,0
	H10L10,0z M24.5,24.5h563v465.1h-563V24.5z M501.8,100.2c-3.6,0.4-6.8,2.3-8.8,5.3l-27.1,38.2l-21.4-16.5
	c-5.4-4.1-13.1-3.1-17.2,2.3c-4.1,5.4-3.1,13.1,2.3,17.2l31.7,24.5c2.7,2.1,6,3,9.4,2.4c3.4-0.5,6.3-2.4,8.2-5.1l34-49
	c2.9-3.9,3.3-9.1,0.9-13.4C511.4,102.1,506.7,99.7,501.8,100.2L501.8,100.2z M110.2,122.4v24.5H355v-24.5H110.2z M501.8,222.6
	c-3.6,0.4-6.8,2.3-8.8,5.3l-27.1,38.3l-21.4-16.5c-5.4-4.1-13.1-3.1-17.2,2.3c-4.1,5.4-3.1,13.1,2.3,17.2l31.7,24.5
	c2.7,2.1,6,3,9.4,2.4c3.4-0.5,6.3-2.4,8.2-5.1l34-49c2.9-3.9,3.3-9.1,0.9-13.4C511.4,224.5,506.7,222.1,501.8,222.6L501.8,222.6z
	 M110.2,244.8v24.5H355v-24.5H110.2z M501.8,345c-3.6,0.4-6.8,2.3-8.8,5.3l-27.1,38.3l-21.4-16.5c-5.4-4.1-13.1-3.1-17.2,2.3
	c-4.1,5.4-3.1,13.1,2.3,17.2l31.7,24.5c2.7,2.1,6,3,9.4,2.4c3.4-0.5,6.3-2.4,8.2-5.1l34-49c2.9-3.9,3.3-9.1,0.9-13.4
	C511.4,346.9,506.7,344.5,501.8,345L501.8,345z M110.2,367.2v24.5H355v-24.5H110.2z"/>
</svg>
