<?xml version="1.0" encoding="utf-8"?>
<!-- Generator: Adobe Illustrator 22.1.0, SVG Export Plug-In . SVG Version: 6.00 Build 0)  -->
<svg version="1.1" id="Слой_1" xmlns="http://www.w3.org/2000/svg" xmlns:xlink="http://www.w3.org/1999/xlink" x="0px" y="0px"
	 viewBox="0 0 36 36.2" style="enable-background:new 0 0 36 36.2;" xml:space="preserve">
<path d="M21.6,0L0,4.1v28.1l21.6,4.1v-4.3H36V4.3H21.6V0z M20.4,1.4v33.4L1.2,31.2V5.1L20.4,1.4z M18.6,3.1c-0.3,0-0.6,0.3-0.6,0.6
	s0.3,0.6,0.6,0.6s0.6-0.3,0.6-0.6S18.9,3.1,18.6,3.1z M18.6,5.5c-0.3,0-0.6,0.3-0.6,0.6s0.3,0.6,0.6,0.6s0.6-0.3,0.6-0.6
	S18.9,5.5,18.6,5.5z M21.6,5.5h13.2v25.2H21.6v-4.8h10.2v-1.2H21.6v-3.6h10.2v-1.2H21.6v-3.6h10.2v-1.2H21.6v-3.6h10.2v-1.2H21.6
	V5.5z M18.6,7.9c-0.3,0-0.6,0.3-0.6,0.6c0,0.3,0.3,0.6,0.6,0.6s0.6-0.3,0.6-0.6C19.2,8.2,18.9,7.9,18.6,7.9z M18.6,10.3
	c-0.3,0-0.6,0.3-0.6,0.6s0.3,0.6,0.6,0.6s0.6-0.3,0.6-0.6S18.9,10.3,18.6,10.3z M18.6,12.7c-0.3,0-0.6,0.3-0.6,0.6
	c0,0.3,0.3,0.6,0.6,0.6s0.6-0.3,0.6-0.6C19.2,13,18.9,12.7,18.6,12.7z M8.7,12.7l-1.5,7.2C7.1,20.3,7,20.8,7,21.2h0
	c0-0.5-0.1-0.9-0.1-1.2l-1.2-7.2H3.6l2.2,10.8H8l1.4-6.9c0.1-0.3,0.1-0.7,0.2-1.2h0c0,0.4,0.1,0.9,0.1,1.2l1.4,6.9h2.1l2.2-10.8
	h-1.9l-1.2,7.2c-0.1,0.4-0.1,0.8-0.1,1.2h0c0-0.5-0.1-0.9-0.1-1.2l-1.4-7.3H8.7z M18.6,15.1c-0.3,0-0.6,0.3-0.6,0.6
	c0,0.3,0.3,0.6,0.6,0.6s0.6-0.3,0.6-0.6C19.2,15.4,18.9,15.1,18.6,15.1z M18.6,17.5c-0.3,0-0.6,0.3-0.6,0.6s0.3,0.6,0.6,0.6
	s0.6-0.3,0.6-0.6S18.9,17.5,18.6,17.5z M18.6,19.9c-0.3,0-0.6,0.3-0.6,0.6s0.3,0.6,0.6,0.6s0.6-0.3,0.6-0.6S18.9,19.9,18.6,19.9z
	 M18.6,22.3c-0.3,0-0.6,0.3-0.6,0.6s0.3,0.6,0.6,0.6s0.6-0.3,0.6-0.6S18.9,22.3,18.6,22.3z M18.6,24.7c-0.3,0-0.6,0.3-0.6,0.6
	c0,0.3,0.3,0.6,0.6,0.6s0.6-0.3,0.6-0.6C19.2,25,18.9,24.7,18.6,24.7z M18.6,27.1c-0.3,0-0.6,0.3-0.6,0.6s0.3,0.6,0.6,0.6
	s0.6-0.3,0.6-0.6S18.9,27.1,18.6,27.1z M18.6,29.5c-0.3,0-0.6,0.3-0.6,0.6s0.3,0.6,0.6,0.6s0.6-0.3,0.6-0.6S18.9,29.5,18.6,29.5z
	 M18.6,31.9c-0.3,0-0.6,0.3-0.6,0.6c0,0.3,0.3,0.6,0.6,0.6s0.6-0.3,0.6-0.6C19.2,32.2,18.9,31.9,18.6,31.9z"/>
</svg>
