<?xml version="1.0" encoding="utf-8"?>
<!-- Generator: Adobe Illustrator 22.1.0, SVG Export Plug-In . SVG Version: 6.00 Build 0)  -->
<svg version="1.1" id="Слой_1" xmlns="http://www.w3.org/2000/svg" xmlns:xlink="http://www.w3.org/1999/xlink" x="0px" y="0px"
	 viewBox="0 0 44.1 40.5" style="enable-background:new 0 0 44.1 40.5;" xml:space="preserve">
<path d="M22,0.2c-0.1,0-0.1,0-0.2,0c-3.9,0-7.5,1.1-10.7,2.9c-0.1,0-0.2,0.1-0.3,0.2C7.5,5.1,4.8,7.8,2.9,11
	c-0.1,0.1-0.2,0.2-0.2,0.3C1,14.5-0.1,18.2-0.1,22.1c0,0.1,0,0.3,0,0.4c0,4.8,1.6,9.2,4.3,12.9c0.3,0.4,0.9,0.5,1.3,0.2
	c0.4-0.3,0.5-0.9,0.2-1.3c-0.2-0.3-0.4-0.6-0.6-0.9l1.7-1c0.5-0.3,0.6-0.8,0.4-1.3c-0.2-0.3-0.5-0.5-0.8-0.5c-0.2,0-0.4,0-0.5,0.1
	l-1.7,1C2.8,29,2,26.2,1.8,23.2h1.9c0.5,0,1-0.4,1-0.9c0-0.5-0.4-1-0.9-1c0,0,0,0,0,0H1.8c0.1-3,0.9-5.8,2.2-8.3L5.7,14
	c0.4,0.3,1,0.1,1.3-0.3c0.3-0.4,0.1-1-0.3-1.3c0,0,0,0-0.1,0L5,11.4c1.6-2.4,3.6-4.5,6.1-6.1L12,6.9c0.2,0.5,0.8,0.6,1.3,0.4
	S14,6.5,13.7,6c0,0,0,0,0-0.1l-0.9-1.6C15.2,3,18,2.3,21,2.1V4c0,0.5,0.4,1,0.9,1c0.5,0,1-0.4,1-0.9c0,0,0,0,0,0V2.1
	c3,0.1,5.8,0.9,8.3,2.2L30.3,6c-0.3,0.4-0.1,1,0.3,1.3c0.4,0.3,1,0.1,1.3-0.3c0,0,0,0,0-0.1l0.9-1.6c2.4,1.6,4.5,3.6,6.1,6.1
	l-1.6,0.9c-0.5,0.2-0.6,0.8-0.4,1.3c0.2,0.5,0.8,0.6,1.3,0.4c0,0,0,0,0.1,0l1.6-0.9c1.3,2.5,2.1,5.3,2.2,8.3h-1.9
	c-0.5,0-1,0.4-1,0.9s0.4,1,0.9,1c0,0,0,0,0,0h1.9c-0.1,3-0.9,5.8-2.2,8.4l-1.7-1c-0.1-0.1-0.3-0.1-0.5-0.1c0,0-0.1,0-0.1,0
	c-0.5,0-0.9,0.5-0.9,1c0,0.3,0.2,0.6,0.5,0.8l1.7,1c-0.2,0.3-0.4,0.6-0.6,0.9c-0.3,0.4-0.2,1,0.2,1.3c0.4,0.3,1,0.2,1.3-0.2l0,0
	c2.6-3.6,4.2-8,4.3-12.8c0-0.1,0-0.3,0-0.4c0-3.9-1.1-7.5-2.9-10.7c0,0,0,0,0,0c0-0.1-0.1-0.2-0.2-0.3c-1.9-3.2-4.6-5.9-7.8-7.8
	c0,0,0,0,0,0C33.1,3.1,33,3.1,32.8,3C29.7,1.2,26,0.2,22.1,0.2c0,0,0,0,0,0C22.1,0.2,22,0.2,22,0.2z M35.2,14.2l-10.6,4
	c-0.8-0.5-1.7-0.8-2.6-0.8c-2.6,0-4.8,2.2-4.8,4.8S19.3,27,22,27s4.8-2.2,4.8-4.8c0,0,0-0.1,0-0.1l8.6-7.6L35.2,14.2z M22,19.4
	c1.6,0,2.9,1.3,2.9,2.9c0,1.6-1.3,2.9-2.9,2.9c-1.6,0-2.9-1.3-2.9-2.9S20.4,19.4,22,19.4z M12.4,34.7c-0.5,0-1,0.4-1,1v3.8
	c0,0.5,0.4,1,1,1h19.2c0.5,0,1-0.4,1-1v-3.8c0-0.5-0.4-1-1-1H12.4z M13.3,36.6h17.3v1.9H13.3V36.6z"/>
</svg>
