<?xml version="1.0" encoding="utf-8"?>
<!-- Generator: Adobe Illustrator 22.1.0, SVG Export Plug-In . SVG Version: 6.00 Build 0)  -->
<svg version="1.1" id="Слой_1" xmlns="http://www.w3.org/2000/svg" xmlns:xlink="http://www.w3.org/1999/xlink" x="0px" y="0px"
	 viewBox="0 0 587.5 550.8" style="enable-background:new 0 0 587.5 550.8;" xml:space="preserve">
<path d="M0,0v146.9h24.5v403.9H563V146.9h24.5V0H0z M24.5,24.5H563v97.9H24.5V24.5z M49,146.9h489.6v379.4H49V146.9z M202,195.8
	c-23.5,0-42.8,19.3-42.8,42.8s19.3,42.8,42.8,42.8h183.6c23.5,0,42.8-19.3,42.8-42.8s-19.3-42.8-42.8-42.8H202z M202,220.3h183.6
	c10.3,0,18.4,8.1,18.4,18.4s-8.1,18.4-18.4,18.4H202c-10.3,0-18.4-8.1-18.4-18.4S191.7,220.3,202,220.3z"/>
</svg>
