<?xml version="1.0" encoding="utf-8"?>
<!-- Generator: Adobe Illustrator 21.0.0, SVG Export Plug-In . SVG Version: 6.00 Build 0)  -->
<svg version="1.1" id="Слой_1" xmlns="http://www.w3.org/2000/svg" xmlns:xlink="http://www.w3.org/1999/xlink" x="0px" y="0px"
	 viewBox="0 0 50 36" style="enable-background:new 0 0 50 36;" xml:space="preserve">
<path d="M5,0C2.3,0,0,2.3,0,5v26c0,2.8,2.3,5,5,5h40c2.8,0,5-2.3,5-5V5c0-2.8-2.3-5-5-5H5z M5,2h40c1.7,0,3,1.3,3,3v26
	c0,1.7-1.3,3-3,3H5c-1.7,0-3-1.3-3-3V5C2,3.3,3.3,2,5,2z M29.7,12.4c-3.1,0-4.7,1.5-4.7,3.5c0,3.5,4.1,3,4.1,4.8c0,0.3-0.2,1-1.9,1
	c-1.7,0-2.8-0.7-2.8-0.7l-0.5,2.4c0,0,1.1,0.6,3.2,0.6s5-1.6,5-4c0-2.8-4.1-3.1-4.1-4.3c0-0.6,0.5-1.1,2-1.1c1,0,2,0.7,2,0.7
	l0.5-2.4C32.5,13,31.1,12.4,29.7,12.4z M16.5,12.6l-2.7,7.9c0,0-0.2-0.7-0.3-1.1c-1.5-3.4-4-4.7-4-4.7l2.4,9h3.3l4.5-11.1H16.5z
	 M20.8,12.6L19,23.8h3l1.8-11.1H20.8z M36.8,12.6L32,23.8h2.9l0.6-1.6h3.7l0.3,1.6h2.7l-2.3-11.1H36.8z M6.3,12.7
	c0,0,5.8,1.8,7.2,6.2l-1-5.1c0,0-0.4-1.1-1.6-1.1H6.3z M37.9,15.8l0.8,4.2h-2.4L37.9,15.8z"/>
</svg>
