<?xml version="1.0" encoding="utf-8"?>
<!-- Generator: Adobe Illustrator 22.1.0, SVG Export Plug-In . SVG Version: 6.00 Build 0)  -->
<svg version="1.1" id="Слой_1" xmlns="http://www.w3.org/2000/svg" xmlns:xlink="http://www.w3.org/1999/xlink" x="0px" y="0px"
	 viewBox="0 0 612 587.5" style="enable-background:new 0 0 612 587.5;" xml:space="preserve">
<path d="M22.2,0c-0.4,0.1-0.8,0.2-1.2,0.4C9.1,2.1,0,12.2,0,24.5C0,38,11,49,24.5,49S49,38,49,24.5h57c15.3,0,23.2,3.2,29.1,8.4
	c5.8,5.2,10.5,13.9,14.6,27.5v0.4l97.9,394.7c3.7,14,7,28.4,17.2,40.2c4.2,4.9,9.6,8.8,16.1,11.9c-7.1,8.5-11.5,19.2-11.5,31
	c0,26.9,22,49,49,49s49-22,49-49c0-9-2.6-17.2-6.9-24.5h75c-4.2,7.3-6.9,15.5-6.9,24.5c0,26.9,22,49,49,49s49-22,49-49
	c0-12.6-5.1-23.8-13-32.5c1.4-3.7,0.8-8-1.4-11.2c-2.3-3.3-6-5.3-10-5.3h-187c-18.8,0-26.2-4-31.4-10c-5.1-5.8-8.6-16.2-12.2-29.8
	v-0.4l-5.3-21.1h333.9c6.7,0,12.2-5.5,12.2-12.2V122.4c0-6.7-5.5-12.2-12.2-12.2H187l-13.8-55.4v-0.8c-4.7-15.8-10.7-29.4-21.8-39.4
	C140.4,4.6,124.9,0,105.9,0H22.2z M193.1,134.6h394.4v269.3H259.7L193.1,134.6z M361.1,159.1c-16.7,0-30.6,13.9-30.6,30.6
	s13.9,30.6,30.6,30.6h85.7c16.7,0,30.6-13.9,30.6-30.6s-13.9-30.6-30.6-30.6H361.1z M361.1,183.6h85.7c3.5,0,6.1,2.6,6.1,6.1
	c0,3.5-2.6,6.1-6.1,6.1h-85.7c-3.5,0-6.1-2.6-6.1-6.1C355,186.2,357.6,183.6,361.1,183.6z M318.2,514.1c13.7,0,24.5,10.8,24.5,24.5
	c0,13.7-10.8,24.5-24.5,24.5s-24.5-10.8-24.5-24.5C293.8,524.9,304.6,514.1,318.2,514.1z M477.4,514.1c13.7,0,24.5,10.8,24.5,24.5
	c0,13.7-10.8,24.5-24.5,24.5s-24.5-10.8-24.5-24.5C452.9,524.9,463.7,514.1,477.4,514.1z"/>
</svg>
